%TF.GenerationSoftware,KiCad,Pcbnew,9.0.1*%
%TF.CreationDate,2025-06-08T22:19:25+02:00*%
%TF.ProjectId,STM32_Custom_Board,53544d33-325f-4437-9573-746f6d5f426f,rev?*%
%TF.SameCoordinates,Original*%
%TF.FileFunction,Soldermask,Top*%
%TF.FilePolarity,Negative*%
%FSLAX46Y46*%
G04 Gerber Fmt 4.6, Leading zero omitted, Abs format (unit mm)*
G04 Created by KiCad (PCBNEW 9.0.1) date 2025-06-08 22:19:25*
%MOMM*%
%LPD*%
G01*
G04 APERTURE LIST*
G04 Aperture macros list*
%AMRoundRect*
0 Rectangle with rounded corners*
0 $1 Rounding radius*
0 $2 $3 $4 $5 $6 $7 $8 $9 X,Y pos of 4 corners*
0 Add a 4 corners polygon primitive as box body*
4,1,4,$2,$3,$4,$5,$6,$7,$8,$9,$2,$3,0*
0 Add four circle primitives for the rounded corners*
1,1,$1+$1,$2,$3*
1,1,$1+$1,$4,$5*
1,1,$1+$1,$6,$7*
1,1,$1+$1,$8,$9*
0 Add four rect primitives between the rounded corners*
20,1,$1+$1,$2,$3,$4,$5,0*
20,1,$1+$1,$4,$5,$6,$7,0*
20,1,$1+$1,$6,$7,$8,$9,0*
20,1,$1+$1,$8,$9,$2,$3,0*%
G04 Aperture macros list end*
%ADD10RoundRect,0.375000X-0.375000X0.625000X-0.375000X-0.625000X0.375000X-0.625000X0.375000X0.625000X0*%
%ADD11RoundRect,0.500000X-1.400000X0.500000X-1.400000X-0.500000X1.400000X-0.500000X1.400000X0.500000X0*%
%ADD12RoundRect,0.250000X-0.250000X-0.475000X0.250000X-0.475000X0.250000X0.475000X-0.250000X0.475000X0*%
%ADD13C,2.100000*%
%ADD14RoundRect,0.140000X0.170000X-0.140000X0.170000X0.140000X-0.170000X0.140000X-0.170000X-0.140000X0*%
%ADD15RoundRect,0.140000X-0.170000X0.140000X-0.170000X-0.140000X0.170000X-0.140000X0.170000X0.140000X0*%
%ADD16R,1.700000X1.700000*%
%ADD17C,1.700000*%
%ADD18RoundRect,0.135000X0.135000X0.185000X-0.135000X0.185000X-0.135000X-0.185000X0.135000X-0.185000X0*%
%ADD19RoundRect,0.140000X0.140000X0.170000X-0.140000X0.170000X-0.140000X-0.170000X0.140000X-0.170000X0*%
%ADD20RoundRect,0.250000X0.475000X-0.250000X0.475000X0.250000X-0.475000X0.250000X-0.475000X-0.250000X0*%
%ADD21RoundRect,0.225000X-0.225000X-0.250000X0.225000X-0.250000X0.225000X0.250000X-0.225000X0.250000X0*%
%ADD22O,0.800000X0.800000*%
%ADD23R,1.300000X0.450000*%
%ADD24O,1.800000X1.150000*%
%ADD25O,2.000000X1.450000*%
%ADD26RoundRect,0.135000X-0.135000X-0.185000X0.135000X-0.185000X0.135000X0.185000X-0.135000X0.185000X0*%
%ADD27RoundRect,0.075000X-0.662500X-0.075000X0.662500X-0.075000X0.662500X0.075000X-0.662500X0.075000X0*%
%ADD28RoundRect,0.075000X-0.075000X-0.662500X0.075000X-0.662500X0.075000X0.662500X-0.075000X0.662500X0*%
%ADD29R,1.800000X2.100000*%
%ADD30RoundRect,0.140000X-0.140000X-0.170000X0.140000X-0.170000X0.140000X0.170000X-0.140000X0.170000X0*%
%ADD31RoundRect,0.135000X0.185000X-0.135000X0.185000X0.135000X-0.185000X0.135000X-0.185000X-0.135000X0*%
%ADD32RoundRect,0.135000X-0.185000X0.135000X-0.185000X-0.135000X0.185000X-0.135000X0.185000X0.135000X0*%
%ADD33RoundRect,0.218750X-0.256250X0.218750X-0.256250X-0.218750X0.256250X-0.218750X0.256250X0.218750X0*%
%ADD34R,0.800000X1.000000*%
%ADD35C,0.900000*%
%ADD36R,1.500000X0.700000*%
G04 APERTURE END LIST*
D10*
%TO.C,U1*%
X109300000Y-86350000D03*
X107000000Y-86350000D03*
D11*
X107000000Y-92650000D03*
D10*
X104700000Y-86350000D03*
%TD*%
D12*
%TO.C,C1*%
X105600000Y-83500000D03*
X107500000Y-83500000D03*
%TD*%
D13*
%TO.C,H1*%
X71000000Y-94500000D03*
%TD*%
D14*
%TO.C,C8*%
X85000000Y-78980000D03*
X85000000Y-78020000D03*
%TD*%
D15*
%TO.C,C6*%
X98500000Y-73720000D03*
X98500000Y-74680000D03*
%TD*%
D13*
%TO.C,H4*%
X116000000Y-59500000D03*
%TD*%
D16*
%TO.C,J3*%
X91540000Y-59500000D03*
D17*
X89000000Y-59500000D03*
X86460000Y-59500000D03*
X83920000Y-59500000D03*
%TD*%
D18*
%TO.C,R5*%
X93000000Y-90000000D03*
X91980000Y-90000000D03*
%TD*%
D19*
%TO.C,C10*%
X85480000Y-84300000D03*
X84520000Y-84300000D03*
%TD*%
%TO.C,C9*%
X85480000Y-82700000D03*
X84520000Y-82700000D03*
%TD*%
D20*
%TO.C,C2*%
X112000000Y-88450000D03*
X112000000Y-86550000D03*
%TD*%
D21*
%TO.C,C3*%
X88425000Y-68000000D03*
X89975000Y-68000000D03*
%TD*%
D22*
%TO.C,J1*%
X113600000Y-77900000D03*
X113600000Y-72900000D03*
D23*
X112500000Y-76700000D03*
X112500000Y-76050000D03*
X112500000Y-75400000D03*
X112500000Y-74750000D03*
X112500000Y-74100000D03*
D24*
X116350000Y-79275000D03*
D25*
X112550000Y-79125000D03*
X112550000Y-71675000D03*
D24*
X116350000Y-71525000D03*
%TD*%
D26*
%TO.C,R1*%
X114490000Y-84500000D03*
X115510000Y-84500000D03*
%TD*%
%TO.C,R4*%
X88790000Y-89900000D03*
X89810000Y-89900000D03*
%TD*%
D16*
%TO.C,J2*%
X106580000Y-59500000D03*
D17*
X104040000Y-59500000D03*
X101500000Y-59500000D03*
X98960000Y-59500000D03*
%TD*%
D27*
%TO.C,U2*%
X87500000Y-74000000D03*
X87500000Y-74500000D03*
X87500000Y-75000000D03*
X87500000Y-75500000D03*
X87500000Y-76000000D03*
X87500000Y-76500000D03*
X87500000Y-77000000D03*
X87500000Y-77500000D03*
X87500000Y-78000000D03*
X87500000Y-78500000D03*
X87500000Y-79000000D03*
X87500000Y-79500000D03*
D28*
X88912500Y-80912500D03*
X89412500Y-80912500D03*
X89912500Y-80912500D03*
X90412500Y-80912500D03*
X90912500Y-80912500D03*
X91412500Y-80912500D03*
X91912500Y-80912500D03*
X92412500Y-80912500D03*
X92912500Y-80912500D03*
X93412500Y-80912500D03*
X93912500Y-80912500D03*
X94412500Y-80912500D03*
D27*
X95825000Y-79500000D03*
X95825000Y-79000000D03*
X95825000Y-78500000D03*
X95825000Y-78000000D03*
X95825000Y-77500000D03*
X95825000Y-77000000D03*
X95825000Y-76500000D03*
X95825000Y-76000000D03*
X95825000Y-75500000D03*
X95825000Y-75000000D03*
X95825000Y-74500000D03*
X95825000Y-74000000D03*
D28*
X94412500Y-72587500D03*
X93912500Y-72587500D03*
X93412500Y-72587500D03*
X92912500Y-72587500D03*
X92412500Y-72587500D03*
X91912500Y-72587500D03*
X91412500Y-72587500D03*
X90912500Y-72587500D03*
X90412500Y-72587500D03*
X89912500Y-72587500D03*
X89412500Y-72587500D03*
X88912500Y-72587500D03*
%TD*%
D13*
%TO.C,H3*%
X71000000Y-59500000D03*
%TD*%
%TO.C,H2*%
X116000000Y-94500000D03*
%TD*%
D14*
%TO.C,C13*%
X83250000Y-76930000D03*
X83250000Y-75970000D03*
%TD*%
D16*
%TO.C,J4*%
X86690000Y-94500000D03*
D17*
X89230000Y-94500000D03*
X91770000Y-94500000D03*
X94310000Y-94500000D03*
%TD*%
D29*
%TO.C,Y1*%
X78700000Y-73550000D03*
X78700000Y-76450000D03*
X81000000Y-76450000D03*
X81000000Y-73550000D03*
%TD*%
D14*
%TO.C,C12*%
X83250000Y-74930000D03*
X83250000Y-73970000D03*
%TD*%
D30*
%TO.C,C11*%
X88920000Y-83050000D03*
X89880000Y-83050000D03*
%TD*%
D14*
%TO.C,C4*%
X84750000Y-73980000D03*
X84750000Y-73020000D03*
%TD*%
D31*
%TO.C,R2*%
X75000000Y-68710000D03*
X75000000Y-67690000D03*
%TD*%
D32*
%TO.C,R3*%
X103000000Y-74440000D03*
X103000000Y-75460000D03*
%TD*%
D30*
%TO.C,C7*%
X88720000Y-70300000D03*
X89680000Y-70300000D03*
%TD*%
D33*
%TO.C,D1*%
X114500000Y-86712500D03*
X114500000Y-88287500D03*
%TD*%
%TO.C,FB1*%
X87000000Y-82712500D03*
X87000000Y-84287500D03*
%TD*%
D19*
%TO.C,C5*%
X94880000Y-83000000D03*
X93920000Y-83000000D03*
%TD*%
D34*
%TO.C,SW1*%
X71280000Y-64350000D03*
X69070000Y-64350000D03*
D35*
X70170000Y-66500000D03*
X70170000Y-69500000D03*
D34*
X71280000Y-71650000D03*
X69070000Y-71650000D03*
D36*
X71930000Y-65750000D03*
X71930000Y-68750000D03*
X71930000Y-70250000D03*
%TD*%
M02*
