%TF.GenerationSoftware,KiCad,Pcbnew,9.0.1*%
%TF.CreationDate,2025-06-08T22:19:25+02:00*%
%TF.ProjectId,STM32_Custom_Board,53544d33-325f-4437-9573-746f6d5f426f,rev?*%
%TF.SameCoordinates,Original*%
%TF.FileFunction,Copper,L1,Top*%
%TF.FilePolarity,Positive*%
%FSLAX46Y46*%
G04 Gerber Fmt 4.6, Leading zero omitted, Abs format (unit mm)*
G04 Created by KiCad (PCBNEW 9.0.1) date 2025-06-08 22:19:25*
%MOMM*%
%LPD*%
G01*
G04 APERTURE LIST*
G04 Aperture macros list*
%AMRoundRect*
0 Rectangle with rounded corners*
0 $1 Rounding radius*
0 $2 $3 $4 $5 $6 $7 $8 $9 X,Y pos of 4 corners*
0 Add a 4 corners polygon primitive as box body*
4,1,4,$2,$3,$4,$5,$6,$7,$8,$9,$2,$3,0*
0 Add four circle primitives for the rounded corners*
1,1,$1+$1,$2,$3*
1,1,$1+$1,$4,$5*
1,1,$1+$1,$6,$7*
1,1,$1+$1,$8,$9*
0 Add four rect primitives between the rounded corners*
20,1,$1+$1,$2,$3,$4,$5,0*
20,1,$1+$1,$4,$5,$6,$7,0*
20,1,$1+$1,$6,$7,$8,$9,0*
20,1,$1+$1,$8,$9,$2,$3,0*%
G04 Aperture macros list end*
%TA.AperFunction,SMDPad,CuDef*%
%ADD10RoundRect,0.375000X-0.375000X0.625000X-0.375000X-0.625000X0.375000X-0.625000X0.375000X0.625000X0*%
%TD*%
%TA.AperFunction,SMDPad,CuDef*%
%ADD11RoundRect,0.500000X-1.400000X0.500000X-1.400000X-0.500000X1.400000X-0.500000X1.400000X0.500000X0*%
%TD*%
%TA.AperFunction,SMDPad,CuDef*%
%ADD12RoundRect,0.250000X-0.250000X-0.475000X0.250000X-0.475000X0.250000X0.475000X-0.250000X0.475000X0*%
%TD*%
%TA.AperFunction,SMDPad,CuDef*%
%ADD13RoundRect,0.140000X0.170000X-0.140000X0.170000X0.140000X-0.170000X0.140000X-0.170000X-0.140000X0*%
%TD*%
%TA.AperFunction,SMDPad,CuDef*%
%ADD14RoundRect,0.140000X-0.170000X0.140000X-0.170000X-0.140000X0.170000X-0.140000X0.170000X0.140000X0*%
%TD*%
%TA.AperFunction,ComponentPad*%
%ADD15R,1.700000X1.700000*%
%TD*%
%TA.AperFunction,ComponentPad*%
%ADD16C,1.700000*%
%TD*%
%TA.AperFunction,SMDPad,CuDef*%
%ADD17RoundRect,0.135000X0.135000X0.185000X-0.135000X0.185000X-0.135000X-0.185000X0.135000X-0.185000X0*%
%TD*%
%TA.AperFunction,SMDPad,CuDef*%
%ADD18RoundRect,0.140000X0.140000X0.170000X-0.140000X0.170000X-0.140000X-0.170000X0.140000X-0.170000X0*%
%TD*%
%TA.AperFunction,SMDPad,CuDef*%
%ADD19RoundRect,0.250000X0.475000X-0.250000X0.475000X0.250000X-0.475000X0.250000X-0.475000X-0.250000X0*%
%TD*%
%TA.AperFunction,SMDPad,CuDef*%
%ADD20RoundRect,0.225000X-0.225000X-0.250000X0.225000X-0.250000X0.225000X0.250000X-0.225000X0.250000X0*%
%TD*%
%TA.AperFunction,SMDPad,CuDef*%
%ADD21R,1.300000X0.450000*%
%TD*%
%TA.AperFunction,HeatsinkPad*%
%ADD22O,1.800000X1.150000*%
%TD*%
%TA.AperFunction,HeatsinkPad*%
%ADD23O,2.000000X1.450000*%
%TD*%
%TA.AperFunction,SMDPad,CuDef*%
%ADD24RoundRect,0.135000X-0.135000X-0.185000X0.135000X-0.185000X0.135000X0.185000X-0.135000X0.185000X0*%
%TD*%
%TA.AperFunction,SMDPad,CuDef*%
%ADD25RoundRect,0.075000X-0.662500X-0.075000X0.662500X-0.075000X0.662500X0.075000X-0.662500X0.075000X0*%
%TD*%
%TA.AperFunction,SMDPad,CuDef*%
%ADD26RoundRect,0.075000X-0.075000X-0.662500X0.075000X-0.662500X0.075000X0.662500X-0.075000X0.662500X0*%
%TD*%
%TA.AperFunction,SMDPad,CuDef*%
%ADD27R,1.800000X2.100000*%
%TD*%
%TA.AperFunction,SMDPad,CuDef*%
%ADD28RoundRect,0.140000X-0.140000X-0.170000X0.140000X-0.170000X0.140000X0.170000X-0.140000X0.170000X0*%
%TD*%
%TA.AperFunction,SMDPad,CuDef*%
%ADD29RoundRect,0.135000X0.185000X-0.135000X0.185000X0.135000X-0.185000X0.135000X-0.185000X-0.135000X0*%
%TD*%
%TA.AperFunction,SMDPad,CuDef*%
%ADD30RoundRect,0.135000X-0.185000X0.135000X-0.185000X-0.135000X0.185000X-0.135000X0.185000X0.135000X0*%
%TD*%
%TA.AperFunction,SMDPad,CuDef*%
%ADD31RoundRect,0.218750X-0.256250X0.218750X-0.256250X-0.218750X0.256250X-0.218750X0.256250X0.218750X0*%
%TD*%
%TA.AperFunction,SMDPad,CuDef*%
%ADD32R,0.800000X1.000000*%
%TD*%
%TA.AperFunction,SMDPad,CuDef*%
%ADD33R,1.500000X0.700000*%
%TD*%
%TA.AperFunction,ViaPad*%
%ADD34C,1.200000*%
%TD*%
%TA.AperFunction,Conductor*%
%ADD35C,0.300000*%
%TD*%
%TA.AperFunction,Conductor*%
%ADD36C,0.500000*%
%TD*%
%TA.AperFunction,Conductor*%
%ADD37C,0.200000*%
%TD*%
G04 APERTURE END LIST*
D10*
%TO.P,U1,1,GND*%
%TO.N,GND*%
X109300000Y-86350000D03*
%TO.P,U1,2,VO*%
%TO.N,+3.3V*%
X107000000Y-86350000D03*
D11*
X107000000Y-92650000D03*
D10*
%TO.P,U1,3,VI*%
%TO.N,VBUS*%
X104700000Y-86350000D03*
%TD*%
D12*
%TO.P,C1,1*%
%TO.N,VBUS*%
X105600000Y-83500000D03*
%TO.P,C1,2*%
%TO.N,GND*%
X107500000Y-83500000D03*
%TD*%
D13*
%TO.P,C8,1*%
%TO.N,+3.3VA*%
X85000000Y-78980000D03*
%TO.P,C8,2*%
%TO.N,GND*%
X85000000Y-78020000D03*
%TD*%
D14*
%TO.P,C6,1*%
%TO.N,+3.3V*%
X98500000Y-73720000D03*
%TO.P,C6,2*%
%TO.N,GND*%
X98500000Y-74680000D03*
%TD*%
D15*
%TO.P,J3,1,Pin_1*%
%TO.N,+3.3V*%
X91540000Y-59500000D03*
D16*
%TO.P,J3,2,Pin_2*%
%TO.N,/USART1_TX*%
X89000000Y-59500000D03*
%TO.P,J3,3,Pin_3*%
%TO.N,/USART_RX*%
X86460000Y-59500000D03*
%TO.P,J3,4,Pin_4*%
%TO.N,GND*%
X83920000Y-59500000D03*
%TD*%
D17*
%TO.P,R5,1*%
%TO.N,+3.3V*%
X93000000Y-90000000D03*
%TO.P,R5,2*%
%TO.N,/I2CS_SDA*%
X91980000Y-90000000D03*
%TD*%
D18*
%TO.P,C10,1*%
%TO.N,+3.3V*%
X85480000Y-84300000D03*
%TO.P,C10,2*%
%TO.N,GND*%
X84520000Y-84300000D03*
%TD*%
%TO.P,C9,1*%
%TO.N,+3.3VA*%
X85480000Y-82700000D03*
%TO.P,C9,2*%
%TO.N,GND*%
X84520000Y-82700000D03*
%TD*%
D19*
%TO.P,C2,1*%
%TO.N,+3.3V*%
X112000000Y-88450000D03*
%TO.P,C2,2*%
%TO.N,GND*%
X112000000Y-86550000D03*
%TD*%
D20*
%TO.P,C3,1*%
%TO.N,+3.3V*%
X88425000Y-68000000D03*
%TO.P,C3,2*%
%TO.N,GND*%
X89975000Y-68000000D03*
%TD*%
D21*
%TO.P,J1,1,VBUS*%
%TO.N,VBUS*%
X112500000Y-76700000D03*
%TO.P,J1,2,D-*%
%TO.N,/USB_D-*%
X112500000Y-76050000D03*
%TO.P,J1,3,D+*%
%TO.N,/USB_D+*%
X112500000Y-75400000D03*
%TO.P,J1,4,ID*%
%TO.N,unconnected-(J1-ID-Pad4)*%
X112500000Y-74750000D03*
%TO.P,J1,5,GND*%
%TO.N,GND*%
X112500000Y-74100000D03*
D22*
%TO.P,J1,6,Shield*%
%TO.N,unconnected-(J1-Shield-Pad6)_3*%
X116350000Y-79275000D03*
D23*
%TO.N,unconnected-(J1-Shield-Pad6)*%
X112550000Y-79125000D03*
%TO.N,unconnected-(J1-Shield-Pad6)_1*%
X112550000Y-71675000D03*
D22*
%TO.N,unconnected-(J1-Shield-Pad6)_2*%
X116350000Y-71525000D03*
%TD*%
D24*
%TO.P,R1,1*%
%TO.N,/PWR_LED_K*%
X114490000Y-84500000D03*
%TO.P,R1,2*%
%TO.N,GND*%
X115510000Y-84500000D03*
%TD*%
%TO.P,R4,1*%
%TO.N,+3.3V*%
X88790000Y-89900000D03*
%TO.P,R4,2*%
%TO.N,/I2CS_SCL*%
X89810000Y-89900000D03*
%TD*%
D15*
%TO.P,J2,1,Pin_1*%
%TO.N,+3.3V*%
X106580000Y-59500000D03*
D16*
%TO.P,J2,2,Pin_2*%
%TO.N,/SWDIO*%
X104040000Y-59500000D03*
%TO.P,J2,3,Pin_3*%
%TO.N,/SWCLK*%
X101500000Y-59500000D03*
%TO.P,J2,4,Pin_4*%
%TO.N,GND*%
X98960000Y-59500000D03*
%TD*%
D25*
%TO.P,U2,1,VBAT*%
%TO.N,+3.3V*%
X87500000Y-74000000D03*
%TO.P,U2,2,PC13*%
%TO.N,unconnected-(U2-PC13-Pad2)*%
X87500000Y-74500000D03*
%TO.P,U2,3,PC14*%
%TO.N,unconnected-(U2-PC14-Pad3)*%
X87500000Y-75000000D03*
%TO.P,U2,4,PC15*%
%TO.N,unconnected-(U2-PC15-Pad4)*%
X87500000Y-75500000D03*
%TO.P,U2,5,PD0*%
%TO.N,/HSE_IN*%
X87500000Y-76000000D03*
%TO.P,U2,6,PD1*%
%TO.N,/HSE_OUT*%
X87500000Y-76500000D03*
%TO.P,U2,7,NRST*%
%TO.N,/NRST*%
X87500000Y-77000000D03*
%TO.P,U2,8,VSSA*%
%TO.N,GND*%
X87500000Y-77500000D03*
%TO.P,U2,9,VDDA*%
%TO.N,+3.3VA*%
X87500000Y-78000000D03*
%TO.P,U2,10,PA0*%
%TO.N,unconnected-(U2-PA0-Pad10)*%
X87500000Y-78500000D03*
%TO.P,U2,11,PA1*%
%TO.N,unconnected-(U2-PA1-Pad11)*%
X87500000Y-79000000D03*
%TO.P,U2,12,PA2*%
%TO.N,unconnected-(U2-PA2-Pad12)*%
X87500000Y-79500000D03*
D26*
%TO.P,U2,13,PA3*%
%TO.N,unconnected-(U2-PA3-Pad13)*%
X88912500Y-80912500D03*
%TO.P,U2,14,PA4*%
%TO.N,unconnected-(U2-PA4-Pad14)*%
X89412500Y-80912500D03*
%TO.P,U2,15,PA5*%
%TO.N,unconnected-(U2-PA5-Pad15)*%
X89912500Y-80912500D03*
%TO.P,U2,16,PA6*%
%TO.N,unconnected-(U2-PA6-Pad16)*%
X90412500Y-80912500D03*
%TO.P,U2,17,PA7*%
%TO.N,unconnected-(U2-PA7-Pad17)*%
X90912500Y-80912500D03*
%TO.P,U2,18,PB0*%
%TO.N,unconnected-(U2-PB0-Pad18)*%
X91412500Y-80912500D03*
%TO.P,U2,19,PB1*%
%TO.N,unconnected-(U2-PB1-Pad19)*%
X91912500Y-80912500D03*
%TO.P,U2,20,PB2*%
%TO.N,unconnected-(U2-PB2-Pad20)*%
X92412500Y-80912500D03*
%TO.P,U2,21,PB10*%
%TO.N,/I2CS_SCL*%
X92912500Y-80912500D03*
%TO.P,U2,22,PB11*%
%TO.N,/I2CS_SDA*%
X93412500Y-80912500D03*
%TO.P,U2,23,VSS*%
%TO.N,GND*%
X93912500Y-80912500D03*
%TO.P,U2,24,VDD*%
%TO.N,+3.3V*%
X94412500Y-80912500D03*
D25*
%TO.P,U2,25,PB12*%
%TO.N,unconnected-(U2-PB12-Pad25)*%
X95825000Y-79500000D03*
%TO.P,U2,26,PB13*%
%TO.N,unconnected-(U2-PB13-Pad26)*%
X95825000Y-79000000D03*
%TO.P,U2,27,PB14*%
%TO.N,unconnected-(U2-PB14-Pad27)*%
X95825000Y-78500000D03*
%TO.P,U2,28,PB15*%
%TO.N,unconnected-(U2-PB15-Pad28)*%
X95825000Y-78000000D03*
%TO.P,U2,29,PA8*%
%TO.N,unconnected-(U2-PA8-Pad29)*%
X95825000Y-77500000D03*
%TO.P,U2,30,PA9*%
%TO.N,unconnected-(U2-PA9-Pad30)*%
X95825000Y-77000000D03*
%TO.P,U2,31,PA10*%
%TO.N,unconnected-(U2-PA10-Pad31)*%
X95825000Y-76500000D03*
%TO.P,U2,32,PA11*%
%TO.N,/USB_D-*%
X95825000Y-76000000D03*
%TO.P,U2,33,PA12*%
%TO.N,/USB_D+*%
X95825000Y-75500000D03*
%TO.P,U2,34,PA13*%
%TO.N,/SWDIO*%
X95825000Y-75000000D03*
%TO.P,U2,35,VSS*%
%TO.N,GND*%
X95825000Y-74500000D03*
%TO.P,U2,36,VDD*%
%TO.N,+3.3V*%
X95825000Y-74000000D03*
D26*
%TO.P,U2,37,PA14*%
%TO.N,/SWCLK*%
X94412500Y-72587500D03*
%TO.P,U2,38,PA15*%
%TO.N,unconnected-(U2-PA15-Pad38)*%
X93912500Y-72587500D03*
%TO.P,U2,39,PB3*%
%TO.N,unconnected-(U2-PB3-Pad39)*%
X93412500Y-72587500D03*
%TO.P,U2,40,PB4*%
%TO.N,unconnected-(U2-PB4-Pad40)*%
X92912500Y-72587500D03*
%TO.P,U2,41,PB5*%
%TO.N,unconnected-(U2-PB5-Pad41)*%
X92412500Y-72587500D03*
%TO.P,U2,42,PB6*%
%TO.N,/USART1_TX*%
X91912500Y-72587500D03*
%TO.P,U2,43,PB7*%
%TO.N,/USART_RX*%
X91412500Y-72587500D03*
%TO.P,U2,44,BOOT0*%
%TO.N,/BOOT0*%
X90912500Y-72587500D03*
%TO.P,U2,45,PB8*%
%TO.N,unconnected-(U2-PB8-Pad45)*%
X90412500Y-72587500D03*
%TO.P,U2,46,PB9*%
%TO.N,unconnected-(U2-PB9-Pad46)*%
X89912500Y-72587500D03*
%TO.P,U2,47,VSS*%
%TO.N,GND*%
X89412500Y-72587500D03*
%TO.P,U2,48,VDD*%
%TO.N,+3.3V*%
X88912500Y-72587500D03*
%TD*%
D13*
%TO.P,C13,1*%
%TO.N,/HSE_OUT*%
X83250000Y-76930000D03*
%TO.P,C13,2*%
%TO.N,GND*%
X83250000Y-75970000D03*
%TD*%
D15*
%TO.P,J4,1,Pin_1*%
%TO.N,+3.3V*%
X86690000Y-94500000D03*
D16*
%TO.P,J4,2,Pin_2*%
%TO.N,/I2CS_SCL*%
X89230000Y-94500000D03*
%TO.P,J4,3,Pin_3*%
%TO.N,/I2CS_SDA*%
X91770000Y-94500000D03*
%TO.P,J4,4,Pin_4*%
%TO.N,GND*%
X94310000Y-94500000D03*
%TD*%
D27*
%TO.P,Y1,1,1*%
%TO.N,/HSE_IN*%
X78700000Y-73550000D03*
%TO.P,Y1,2,2*%
%TO.N,GND*%
X78700000Y-76450000D03*
%TO.P,Y1,3,3*%
%TO.N,/HSE_OUT*%
X81000000Y-76450000D03*
%TO.P,Y1,4,4*%
%TO.N,GND*%
X81000000Y-73550000D03*
%TD*%
D13*
%TO.P,C12,1*%
%TO.N,/HSE_IN*%
X83250000Y-74930000D03*
%TO.P,C12,2*%
%TO.N,GND*%
X83250000Y-73970000D03*
%TD*%
D28*
%TO.P,C11,1*%
%TO.N,/NRST*%
X88920000Y-83050000D03*
%TO.P,C11,2*%
%TO.N,GND*%
X89880000Y-83050000D03*
%TD*%
D13*
%TO.P,C4,1*%
%TO.N,+3.3V*%
X84750000Y-73980000D03*
%TO.P,C4,2*%
%TO.N,GND*%
X84750000Y-73020000D03*
%TD*%
D29*
%TO.P,R2,1*%
%TO.N,/SW_BOOT0*%
X75000000Y-68710000D03*
%TO.P,R2,2*%
%TO.N,/BOOT0*%
X75000000Y-67690000D03*
%TD*%
D30*
%TO.P,R3,1*%
%TO.N,+3.3V*%
X103000000Y-74440000D03*
%TO.P,R3,2*%
%TO.N,/USB_D+*%
X103000000Y-75460000D03*
%TD*%
D28*
%TO.P,C7,1*%
%TO.N,+3.3V*%
X88720000Y-70300000D03*
%TO.P,C7,2*%
%TO.N,GND*%
X89680000Y-70300000D03*
%TD*%
D31*
%TO.P,D1,1,K*%
%TO.N,/PWR_LED_K*%
X114500000Y-86712500D03*
%TO.P,D1,2,A*%
%TO.N,+3.3V*%
X114500000Y-88287500D03*
%TD*%
%TO.P,FB1,1*%
%TO.N,+3.3VA*%
X87000000Y-82712500D03*
%TO.P,FB1,2*%
%TO.N,+3.3V*%
X87000000Y-84287500D03*
%TD*%
D18*
%TO.P,C5,1*%
%TO.N,+3.3V*%
X94880000Y-83000000D03*
%TO.P,C5,2*%
%TO.N,GND*%
X93920000Y-83000000D03*
%TD*%
D32*
%TO.P,SW1,*%
%TO.N,*%
X71280000Y-64350000D03*
X69070000Y-64350000D03*
X71280000Y-71650000D03*
X69070000Y-71650000D03*
D33*
%TO.P,SW1,1,A*%
%TO.N,+3.3V*%
X71930000Y-65750000D03*
%TO.P,SW1,2,B*%
%TO.N,/SW_BOOT0*%
X71930000Y-68750000D03*
%TO.P,SW1,3,C*%
%TO.N,GND*%
X71930000Y-70250000D03*
%TD*%
D34*
%TO.N,GND*%
X83000000Y-78500000D03*
X90000000Y-66100000D03*
X116700000Y-84500000D03*
X81000000Y-71400000D03*
X78700000Y-79100000D03*
X89400000Y-77900000D03*
X110100000Y-74100000D03*
X109100000Y-83100000D03*
X84750000Y-71800000D03*
X89850000Y-84600000D03*
X84600000Y-85800000D03*
X84400000Y-75700000D03*
X84600000Y-81100000D03*
X109100000Y-84400000D03*
X110600000Y-84400000D03*
X100500000Y-74000000D03*
X74000000Y-70200000D03*
X112000000Y-84500000D03*
X83200000Y-72000000D03*
X93900000Y-78900000D03*
%TO.N,/BOOT0*%
X86800000Y-71700000D03*
X90000000Y-75000000D03*
%TD*%
D35*
%TO.N,+3.3V*%
X86000000Y-73000000D02*
X86000000Y-74000000D01*
X86000000Y-74000000D02*
X84770000Y-74000000D01*
X86300000Y-72700000D02*
X86000000Y-73000000D01*
X87500000Y-72700000D02*
X86300000Y-72700000D01*
X87500000Y-74000000D02*
X86000000Y-74000000D01*
D36*
%TO.N,/PWR_LED_K*%
X114490000Y-86702500D02*
X114500000Y-86712500D01*
X114490000Y-84500000D02*
X114490000Y-86702500D01*
D35*
%TO.N,/USB_D+*%
X103000000Y-75460000D02*
X103000000Y-75500000D01*
D37*
X103000000Y-75500000D02*
X111424999Y-75500000D01*
%TO.N,/USB_D-*%
X111524999Y-76050000D02*
X112500000Y-76050000D01*
X103369340Y-76031000D02*
X103450340Y-75950000D01*
X102549660Y-75950000D02*
X102630660Y-76031000D01*
X95875000Y-75950000D02*
X102549660Y-75950000D01*
X111424999Y-75950000D02*
X111524999Y-76050000D01*
%TO.N,/USB_D+*%
X111524999Y-75400000D02*
X112500000Y-75400000D01*
%TO.N,/USB_D-*%
X102630660Y-76031000D02*
X103369340Y-76031000D01*
%TO.N,/USB_D+*%
X111424999Y-75500000D02*
X111524999Y-75400000D01*
X95825000Y-75500000D02*
X103000000Y-75500000D01*
%TO.N,/USB_D-*%
X103450340Y-75950000D02*
X111424999Y-75950000D01*
D36*
%TO.N,+3.3V*%
X103000000Y-74440000D02*
X103000000Y-73200000D01*
%TO.N,GND*%
X99680000Y-74680000D02*
X98500000Y-74680000D01*
X100360000Y-74000000D02*
X99680000Y-74680000D01*
X100500000Y-74000000D02*
X100360000Y-74000000D01*
D35*
X83480000Y-78020000D02*
X83000000Y-78500000D01*
X85000000Y-78020000D02*
X83480000Y-78020000D01*
%TO.N,+3.3VA*%
X86289999Y-78000000D02*
X85309999Y-78980000D01*
X85309999Y-78980000D02*
X85000000Y-78980000D01*
X87500000Y-78000000D02*
X86289999Y-78000000D01*
D36*
X85651000Y-79631000D02*
X85000000Y-78980000D01*
X85651000Y-82529000D02*
X85651000Y-79631000D01*
X85480000Y-82700000D02*
X85651000Y-82529000D01*
D37*
%TO.N,/HSE_OUT*%
X86352190Y-76500000D02*
X85922190Y-76930000D01*
X87500000Y-76500000D02*
X86352190Y-76500000D01*
X85922190Y-76930000D02*
X83250000Y-76930000D01*
D35*
%TO.N,/BOOT0*%
X82790000Y-67690000D02*
X75000000Y-67690000D01*
X86800000Y-71700000D02*
X82790000Y-67690000D01*
D37*
X90000000Y-75000000D02*
X90912500Y-74087500D01*
X90912500Y-74087500D02*
X90912500Y-72587500D01*
D36*
%TO.N,GND*%
X89680000Y-70300000D02*
X89680000Y-69820000D01*
X81000000Y-73550000D02*
X81000000Y-71400000D01*
X84600000Y-81100000D02*
X84600000Y-81540000D01*
X89975000Y-68000000D02*
X89975000Y-66125000D01*
X84600000Y-85800000D02*
X84600000Y-85460000D01*
X89680000Y-69820000D02*
X90000000Y-69500000D01*
X89850000Y-83950000D02*
X89880000Y-83920000D01*
X89850000Y-84600000D02*
X89850000Y-83950000D01*
D35*
X88800000Y-77900000D02*
X88400000Y-77500000D01*
X97200000Y-74700000D02*
X97220000Y-74680000D01*
D36*
X78700000Y-76450000D02*
X78700000Y-79100000D01*
X89880000Y-83920000D02*
X89880000Y-83050000D01*
X84130000Y-75970000D02*
X84400000Y-75700000D01*
X89975000Y-69475000D02*
X89975000Y-68000000D01*
D35*
X97000000Y-74500000D02*
X97200000Y-74700000D01*
X88400000Y-77500000D02*
X87500000Y-77500000D01*
D36*
X73950000Y-70250000D02*
X74000000Y-70200000D01*
D35*
X89412500Y-72587500D02*
X89412500Y-71687500D01*
X95825000Y-74500000D02*
X97000000Y-74500000D01*
D36*
X83200000Y-72000000D02*
X83200000Y-73050000D01*
D35*
X93900000Y-78900000D02*
X93900000Y-79350000D01*
X115510000Y-84500000D02*
X116700000Y-84500000D01*
D36*
X83250000Y-73100000D02*
X83250000Y-73970000D01*
X84750000Y-73020000D02*
X84750000Y-71800000D01*
D35*
X93912500Y-80912500D02*
X93912500Y-82992500D01*
D36*
X84600000Y-81540000D02*
X84520000Y-81620000D01*
X84520000Y-81620000D02*
X84520000Y-82500000D01*
D35*
X97220000Y-74680000D02*
X98500000Y-74680000D01*
X89412500Y-71687500D02*
X89680000Y-71420000D01*
X93900000Y-79350000D02*
X93912500Y-79362500D01*
D36*
X71930000Y-70250000D02*
X73950000Y-70250000D01*
X83200000Y-73050000D02*
X83250000Y-73100000D01*
X84520000Y-85380000D02*
X84520000Y-84500000D01*
X90000000Y-69500000D02*
X89975000Y-69475000D01*
D35*
X112500000Y-74100000D02*
X110100000Y-74100000D01*
X93912500Y-82992500D02*
X93920000Y-83000000D01*
D36*
X83250000Y-75970000D02*
X84130000Y-75970000D01*
D35*
X89400000Y-77900000D02*
X88800000Y-77900000D01*
D36*
X89975000Y-66125000D02*
X90000000Y-66100000D01*
D35*
X89680000Y-71420000D02*
X89680000Y-70300000D01*
X93912500Y-79362500D02*
X93912500Y-80912500D01*
D36*
X84600000Y-85460000D02*
X84520000Y-85380000D01*
%TO.N,+3.3V*%
X106580000Y-59500000D02*
X109100000Y-59500000D01*
X86690000Y-94500000D02*
X86690000Y-92000000D01*
D35*
X97200000Y-73700000D02*
X97220000Y-73720000D01*
X94412500Y-82012500D02*
X94412500Y-80912500D01*
X96900000Y-74000000D02*
X97200000Y-73700000D01*
X97220000Y-73720000D02*
X98500000Y-73720000D01*
D36*
X86987500Y-84300000D02*
X87000000Y-84287500D01*
X106580000Y-59500000D02*
X106580000Y-69620000D01*
D35*
X88912500Y-71712500D02*
X88700000Y-71500000D01*
D36*
X88720000Y-70300000D02*
X88720000Y-69820000D01*
X81100000Y-57600000D02*
X78400000Y-60300000D01*
D35*
X88912500Y-72587500D02*
X88912500Y-71712500D01*
D36*
X117900000Y-87700000D02*
X117300000Y-88300000D01*
X106580000Y-69620000D02*
X103000000Y-73200000D01*
X99080000Y-73720000D02*
X100100000Y-72700000D01*
D35*
X94880000Y-83000000D02*
X94880000Y-82480000D01*
D36*
X88400000Y-69500000D02*
X88425000Y-69475000D01*
X86690000Y-95690000D02*
X87749000Y-96749000D01*
X91540000Y-59500000D02*
X91540000Y-58840000D01*
X117200000Y-88300000D02*
X117187500Y-88287500D01*
X86175000Y-65750000D02*
X78400000Y-65750000D01*
X98251000Y-96749000D02*
X100750000Y-94250000D01*
X100100000Y-90000000D02*
X93000000Y-90000000D01*
X88720000Y-69820000D02*
X88400000Y-69500000D01*
X117900000Y-84213661D02*
X117900000Y-87700000D01*
X105500000Y-57500000D02*
X106580000Y-58580000D01*
X86690000Y-92000000D02*
X88790000Y-89900000D01*
X100750000Y-94250000D02*
X100750000Y-92650000D01*
X98500000Y-73720000D02*
X99080000Y-73720000D01*
X91540000Y-59500000D02*
X93540000Y-57500000D01*
D35*
X94880000Y-82480000D02*
X94412500Y-82012500D01*
D36*
X100100000Y-86100000D02*
X100100000Y-90000000D01*
X100750000Y-92650000D02*
X107000000Y-92650000D01*
X106580000Y-58580000D02*
X106580000Y-59500000D01*
X114700000Y-81600000D02*
X115286339Y-81600000D01*
X90300000Y-57600000D02*
X81100000Y-57600000D01*
D35*
X87500000Y-72700000D02*
X88700000Y-71500000D01*
D36*
X103000000Y-73200000D02*
X101700000Y-73200000D01*
X97000000Y-83000000D02*
X100100000Y-86100000D01*
X117300000Y-88300000D02*
X117200000Y-88300000D01*
X88790000Y-89690000D02*
X87000000Y-87900000D01*
X86690000Y-94500000D02*
X86690000Y-95690000D01*
X87749000Y-96749000D02*
X98251000Y-96749000D01*
D35*
X84770000Y-74000000D02*
X84750000Y-73980000D01*
D36*
X94880000Y-83000000D02*
X97000000Y-83000000D01*
X100100000Y-72700000D02*
X101200000Y-72700000D01*
D35*
X88700000Y-71500000D02*
X88720000Y-71480000D01*
D36*
X100100000Y-92000000D02*
X100750000Y-92650000D01*
X114700000Y-65100000D02*
X114700000Y-81600000D01*
X109100000Y-59500000D02*
X114700000Y-65100000D01*
X78400000Y-65750000D02*
X71930000Y-65750000D01*
X78400000Y-60300000D02*
X78400000Y-65750000D01*
X88425000Y-68000000D02*
X86175000Y-65750000D01*
X85480000Y-84300000D02*
X86987500Y-84300000D01*
X100100000Y-90000000D02*
X100100000Y-92000000D01*
X88425000Y-69475000D02*
X88425000Y-68000000D01*
X88790000Y-89900000D02*
X88790000Y-89690000D01*
D35*
X95825000Y-74000000D02*
X96900000Y-74000000D01*
X88720000Y-71480000D02*
X88720000Y-70300000D01*
D36*
X93540000Y-57500000D02*
X105500000Y-57500000D01*
X117187500Y-88287500D02*
X114500000Y-88287500D01*
X115286339Y-81600000D02*
X117900000Y-84213661D01*
X101200000Y-72700000D02*
X101700000Y-73200000D01*
X91540000Y-58840000D02*
X90300000Y-57600000D01*
X87000000Y-87900000D02*
X87000000Y-84287500D01*
%TO.N,+3.3VA*%
X87000000Y-82712500D02*
X85492500Y-82712500D01*
X85492500Y-82712500D02*
X85480000Y-82700000D01*
D35*
%TO.N,/NRST*%
X90700000Y-76700000D02*
X91200000Y-77200000D01*
X91200000Y-77200000D02*
X91200000Y-77700000D01*
X89300000Y-79600000D02*
X88800000Y-79600000D01*
X87700000Y-80700000D02*
X87700000Y-81200000D01*
X87700000Y-81200000D02*
X88200000Y-81700000D01*
X87500000Y-77000000D02*
X89000000Y-77000000D01*
X88350000Y-83050000D02*
X88920000Y-83050000D01*
X89300000Y-76700000D02*
X90700000Y-76700000D01*
X89000000Y-77000000D02*
X89300000Y-76700000D01*
X88200000Y-82900000D02*
X88350000Y-83050000D01*
X88800000Y-79600000D02*
X87700000Y-80700000D01*
X88200000Y-81700000D02*
X88200000Y-82900000D01*
X91200000Y-77700000D02*
X89300000Y-79600000D01*
%TO.N,/HSE_IN*%
X86600000Y-76000000D02*
X85600000Y-75000000D01*
X83250000Y-74930000D02*
X83229000Y-74951000D01*
X84006082Y-74749000D02*
X83755082Y-75000000D01*
X85600000Y-75000000D02*
X85044918Y-75000000D01*
X85044918Y-75000000D02*
X84793918Y-74749000D01*
X83229000Y-74951000D02*
X79951000Y-74951000D01*
X79951000Y-74951000D02*
X78700000Y-73700000D01*
X83320000Y-75000000D02*
X83250000Y-74930000D01*
X83755082Y-75000000D02*
X83320000Y-75000000D01*
X78700000Y-73700000D02*
X78700000Y-73550000D01*
X87500000Y-76000000D02*
X86600000Y-76000000D01*
X84793918Y-74749000D02*
X84006082Y-74749000D01*
%TO.N,/HSE_OUT*%
X83250000Y-76930000D02*
X81480000Y-76930000D01*
X81480000Y-76930000D02*
X81000000Y-76450000D01*
D37*
%TO.N,/USB_D-*%
X95825000Y-76000000D02*
X95875000Y-75950000D01*
D35*
%TO.N,/SWCLK*%
X94412500Y-66587500D02*
X94412500Y-72587500D01*
X101500000Y-59500000D02*
X94412500Y-66587500D01*
%TO.N,/SWDIO*%
X94350000Y-73850000D02*
X94500000Y-73850000D01*
X94100000Y-74650000D02*
X94100000Y-74100000D01*
X94450000Y-75000000D02*
X94100000Y-74650000D01*
X94500000Y-73850000D02*
X104040000Y-64310000D01*
X104040000Y-64310000D02*
X104040000Y-59500000D01*
X95825000Y-75000000D02*
X94450000Y-75000000D01*
X94100000Y-74100000D02*
X94350000Y-73850000D01*
%TO.N,/USART1_TX*%
X91912500Y-72587500D02*
X91912500Y-71537500D01*
X92600000Y-65000000D02*
X90800000Y-63200000D01*
X92600000Y-70850000D02*
X92600000Y-65000000D01*
X89050000Y-63200000D02*
X89050000Y-63000000D01*
X89000000Y-62950000D02*
X89000000Y-59500000D01*
X89050000Y-63000000D02*
X89000000Y-62950000D01*
X90800000Y-63200000D02*
X89050000Y-63200000D01*
X91912500Y-71537500D02*
X92600000Y-70850000D01*
%TO.N,/USART_RX*%
X91412500Y-71412500D02*
X91000000Y-71000000D01*
X86460000Y-62410000D02*
X86460000Y-59500000D01*
X91000000Y-71000000D02*
X91000000Y-65000000D01*
X90350000Y-64350000D02*
X88000000Y-64350000D01*
X91412500Y-72587500D02*
X91412500Y-71412500D01*
X88000000Y-64350000D02*
X86500000Y-62850000D01*
X91000000Y-65000000D02*
X90350000Y-64350000D01*
X86500000Y-62850000D02*
X86500000Y-62450000D01*
X86500000Y-62450000D02*
X86460000Y-62410000D01*
%TO.N,/I2CS_SCL*%
X89200000Y-91700000D02*
X89230000Y-91730000D01*
X91050000Y-86750000D02*
X89810000Y-87990000D01*
X92700000Y-82000000D02*
X91650000Y-82000000D01*
X89810000Y-87990000D02*
X89810000Y-89900000D01*
X89230000Y-91730000D02*
X89230000Y-94500000D01*
X89810000Y-89900000D02*
X89810000Y-91090000D01*
X92912500Y-81787500D02*
X92700000Y-82000000D01*
X89480000Y-94250000D02*
X89230000Y-94500000D01*
X91100000Y-82550000D02*
X91100000Y-86750000D01*
X91650000Y-82000000D02*
X91100000Y-82550000D01*
X89810000Y-91090000D02*
X89200000Y-91700000D01*
X91100000Y-86750000D02*
X91050000Y-86750000D01*
X92912500Y-80912500D02*
X92912500Y-81787500D01*
%TO.N,/I2CS_SDA*%
X93412500Y-80912500D02*
X93412500Y-82337500D01*
X91980000Y-89420000D02*
X91980000Y-90000000D01*
X91980000Y-90480000D02*
X91770000Y-90690000D01*
X92800000Y-82950000D02*
X92800000Y-88600000D01*
X91770000Y-90690000D02*
X91770000Y-94500000D01*
X92800000Y-88600000D02*
X91980000Y-89420000D01*
X91980000Y-90000000D02*
X91980000Y-90480000D01*
X93412500Y-82337500D02*
X92800000Y-82950000D01*
%TO.N,/SW_BOOT0*%
X74960000Y-68750000D02*
X75000000Y-68710000D01*
X71930000Y-68750000D02*
X74960000Y-68750000D01*
D37*
%TO.N,unconnected-(U2-PA10-Pad31)*%
X95825000Y-76500000D02*
X95875000Y-76450000D01*
%TD*%
%TA.AperFunction,Conductor*%
%TO.N,GND*%
G36*
X109727301Y-82519685D02*
G01*
X109732332Y-82523094D01*
X109779746Y-82556961D01*
X110397938Y-82998527D01*
X110401989Y-83001547D01*
X111300000Y-83700000D01*
X112548638Y-83700000D01*
X112615677Y-83719685D01*
X112636319Y-83736319D01*
X113063681Y-84163681D01*
X113097166Y-84225004D01*
X113100000Y-84251362D01*
X113100000Y-87048638D01*
X113091355Y-87078078D01*
X113084832Y-87108065D01*
X113081077Y-87113080D01*
X113080315Y-87115677D01*
X113063681Y-87136319D01*
X113036319Y-87163681D01*
X112974996Y-87197166D01*
X112948638Y-87200000D01*
X111100000Y-87200000D01*
X110237200Y-88350400D01*
X110181229Y-88392221D01*
X110138000Y-88400000D01*
X108837544Y-88400000D01*
X108770505Y-88380315D01*
X108768761Y-88379174D01*
X108555217Y-88236811D01*
X108510356Y-88183246D01*
X108500000Y-88133637D01*
X108500000Y-84699999D01*
X108200000Y-84500000D01*
X107806188Y-84500000D01*
X107793850Y-84499385D01*
X106911662Y-84411166D01*
X106846913Y-84384908D01*
X106806640Y-84327813D01*
X106800000Y-84287781D01*
X106800000Y-82624000D01*
X106819685Y-82556961D01*
X106872489Y-82511206D01*
X106924000Y-82500000D01*
X109660262Y-82500000D01*
X109727301Y-82519685D01*
G37*
%TD.AperFunction*%
%TD*%
%TA.AperFunction,Conductor*%
%TO.N,+3.3V*%
G36*
X107525706Y-85119685D02*
G01*
X107533067Y-85124800D01*
X107850400Y-85362800D01*
X107892221Y-85418771D01*
X107900000Y-85462000D01*
X107900000Y-88499999D01*
X107899999Y-88499999D01*
X107900000Y-88500000D01*
X108400000Y-89100000D01*
X110200000Y-89100000D01*
X111262841Y-87650670D01*
X111318359Y-87608251D01*
X111362835Y-87600000D01*
X115158667Y-87600000D01*
X115225706Y-87619685D01*
X115233062Y-87624796D01*
X115550400Y-87862800D01*
X115592221Y-87918771D01*
X115600000Y-87962000D01*
X115600000Y-88938000D01*
X115580315Y-89005039D01*
X115550400Y-89037200D01*
X115233067Y-89275200D01*
X115167625Y-89299676D01*
X115158667Y-89300000D01*
X114600000Y-89300000D01*
X113123406Y-90120330D01*
X112828087Y-90284396D01*
X112767867Y-90300000D01*
X111600000Y-90300000D01*
X109605962Y-93091652D01*
X109592740Y-93107259D01*
X108836319Y-93863681D01*
X108774996Y-93897166D01*
X108748638Y-93900000D01*
X105434345Y-93900000D01*
X105370549Y-93882329D01*
X104960202Y-93636121D01*
X104912844Y-93584750D01*
X104900000Y-93529792D01*
X104900000Y-91766362D01*
X104919685Y-91699323D01*
X104955215Y-91663189D01*
X106100000Y-90900000D01*
X106100000Y-85462000D01*
X106119685Y-85394961D01*
X106149600Y-85362800D01*
X106466933Y-85124800D01*
X106532375Y-85100324D01*
X106541333Y-85100000D01*
X107458667Y-85100000D01*
X107525706Y-85119685D01*
G37*
%TD.AperFunction*%
%TD*%
%TA.AperFunction,Conductor*%
%TO.N,VBUS*%
G36*
X111358990Y-76416612D02*
G01*
X111370412Y-76423207D01*
X111472272Y-76450500D01*
X111549167Y-76450500D01*
X111616206Y-76470185D01*
X111636848Y-76486819D01*
X111677235Y-76527206D01*
X111780009Y-76572585D01*
X111805135Y-76575500D01*
X113194864Y-76575499D01*
X113194879Y-76575497D01*
X113194882Y-76575497D01*
X113219987Y-76572586D01*
X113219987Y-76572585D01*
X113219991Y-76572585D01*
X113322765Y-76527206D01*
X113322766Y-76527204D01*
X113325913Y-76525815D01*
X113395191Y-76516743D01*
X113458377Y-76546566D01*
X113495408Y-76605815D01*
X113500000Y-76639249D01*
X113500000Y-76976000D01*
X113480315Y-77043039D01*
X113427511Y-77088794D01*
X113376000Y-77100000D01*
X111100000Y-77100000D01*
X108530919Y-78779784D01*
X108464037Y-78799996D01*
X108463060Y-78800000D01*
X106900000Y-78800000D01*
X106899999Y-78800000D01*
X106899997Y-78800001D01*
X106200000Y-79299999D01*
X106200000Y-84348637D01*
X106180315Y-84415676D01*
X106163681Y-84436318D01*
X106100003Y-84499995D01*
X106100000Y-84499998D01*
X105600000Y-85400000D01*
X105600000Y-87148638D01*
X105580315Y-87215677D01*
X105563681Y-87236319D01*
X105336319Y-87463681D01*
X105274996Y-87497166D01*
X105248638Y-87500000D01*
X104262000Y-87500000D01*
X104194961Y-87480315D01*
X104162800Y-87450400D01*
X103924800Y-87133066D01*
X103900324Y-87067624D01*
X103900000Y-87058666D01*
X103900000Y-85451362D01*
X103919685Y-85384323D01*
X103936319Y-85363681D01*
X104800000Y-84500000D01*
X104800000Y-78541333D01*
X104819685Y-78474294D01*
X104824800Y-78466933D01*
X105062800Y-78149600D01*
X105118771Y-78107779D01*
X105162000Y-78100000D01*
X108399999Y-78100000D01*
X108400000Y-78100000D01*
X110969081Y-76420215D01*
X111035963Y-76400004D01*
X111036940Y-76400000D01*
X111296991Y-76400000D01*
X111358990Y-76416612D01*
G37*
%TD.AperFunction*%
%TD*%
M02*
