M48
; DRILL file {KiCad 9.0.1} date 2025-06-08T22:19:18+0200
; FORMAT={-:-/ absolute / metric / decimal}
; #@! TF.CreationDate,2025-06-08T22:19:18+02:00
; #@! TF.GenerationSoftware,Kicad,Pcbnew,9.0.1
; #@! TF.FileFunction,Plated,1,2,PTH
FMAT,2
METRIC
; #@! TA.AperFunction,Plated,PTH,ComponentDrill
T1C0.550
; #@! TA.AperFunction,Plated,PTH,ViaDrill
T2C0.600
; #@! TA.AperFunction,Plated,PTH,ComponentDrill
T3C0.850
; #@! TA.AperFunction,Plated,PTH,ComponentDrill
T4C1.000
%
G90
G05
T2
X74.0Y-70.2
X78.7Y-79.1
X81.0Y-71.4
X83.0Y-78.5
X83.2Y-72.0
X84.4Y-75.7
X84.6Y-81.1
X84.6Y-85.8
X84.75Y-71.8
X86.8Y-71.7
X89.4Y-77.9
X89.85Y-84.6
X90.0Y-66.1
X90.0Y-75.0
X93.9Y-78.9
X100.5Y-74.0
X109.1Y-83.1
X109.1Y-84.4
X110.1Y-74.1
X110.6Y-84.4
X112.0Y-84.5
X116.7Y-84.5
T4
X83.92Y-59.5
X86.46Y-59.5
X86.69Y-94.5
X89.0Y-59.5
X89.23Y-94.5
X91.54Y-59.5
X91.77Y-94.5
X94.31Y-94.5
X98.96Y-59.5
X101.5Y-59.5
X104.04Y-59.5
X106.58Y-59.5
T1
G00X116.025Y-71.525
M15
G01X116.675Y-71.525
M16
G05
G00X116.025Y-79.275
M15
G01X116.675Y-79.275
M16
G05
T3
G00X112.275Y-71.675
M15
G01X112.825Y-71.675
M16
G05
G00X112.275Y-79.125
M15
G01X112.825Y-79.125
M16
G05
M30
