%TF.GenerationSoftware,KiCad,Pcbnew,9.0.1*%
%TF.CreationDate,2025-06-08T22:19:25+02:00*%
%TF.ProjectId,STM32_Custom_Board,53544d33-325f-4437-9573-746f6d5f426f,rev?*%
%TF.SameCoordinates,Original*%
%TF.FileFunction,Copper,L2,Bot*%
%TF.FilePolarity,Positive*%
%FSLAX46Y46*%
G04 Gerber Fmt 4.6, Leading zero omitted, Abs format (unit mm)*
G04 Created by KiCad (PCBNEW 9.0.1) date 2025-06-08 22:19:25*
%MOMM*%
%LPD*%
G01*
G04 APERTURE LIST*
%TA.AperFunction,ComponentPad*%
%ADD10R,1.700000X1.700000*%
%TD*%
%TA.AperFunction,ComponentPad*%
%ADD11C,1.700000*%
%TD*%
%TA.AperFunction,HeatsinkPad*%
%ADD12O,1.800000X1.150000*%
%TD*%
%TA.AperFunction,HeatsinkPad*%
%ADD13O,2.000000X1.450000*%
%TD*%
%TA.AperFunction,ViaPad*%
%ADD14C,1.200000*%
%TD*%
%TA.AperFunction,Conductor*%
%ADD15C,0.300000*%
%TD*%
G04 APERTURE END LIST*
D10*
%TO.P,J3,1,Pin_1*%
%TO.N,+3.3V*%
X91540000Y-59500000D03*
D11*
%TO.P,J3,2,Pin_2*%
%TO.N,/USART1_TX*%
X89000000Y-59500000D03*
%TO.P,J3,3,Pin_3*%
%TO.N,/USART_RX*%
X86460000Y-59500000D03*
%TO.P,J3,4,Pin_4*%
%TO.N,GND*%
X83920000Y-59500000D03*
%TD*%
D12*
%TO.P,J1,6,Shield*%
%TO.N,unconnected-(J1-Shield-Pad6)_3*%
X116350000Y-79275000D03*
D13*
%TO.N,unconnected-(J1-Shield-Pad6)*%
X112550000Y-79125000D03*
%TO.N,unconnected-(J1-Shield-Pad6)_1*%
X112550000Y-71675000D03*
D12*
%TO.N,unconnected-(J1-Shield-Pad6)_2*%
X116350000Y-71525000D03*
%TD*%
D10*
%TO.P,J2,1,Pin_1*%
%TO.N,+3.3V*%
X106580000Y-59500000D03*
D11*
%TO.P,J2,2,Pin_2*%
%TO.N,/SWDIO*%
X104040000Y-59500000D03*
%TO.P,J2,3,Pin_3*%
%TO.N,/SWCLK*%
X101500000Y-59500000D03*
%TO.P,J2,4,Pin_4*%
%TO.N,GND*%
X98960000Y-59500000D03*
%TD*%
D10*
%TO.P,J4,1,Pin_1*%
%TO.N,+3.3V*%
X86690000Y-94500000D03*
D11*
%TO.P,J4,2,Pin_2*%
%TO.N,/I2CS_SCL*%
X89230000Y-94500000D03*
%TO.P,J4,3,Pin_3*%
%TO.N,/I2CS_SDA*%
X91770000Y-94500000D03*
%TO.P,J4,4,Pin_4*%
%TO.N,GND*%
X94310000Y-94500000D03*
%TD*%
D14*
%TO.N,GND*%
X83000000Y-78500000D03*
X90000000Y-66100000D03*
X116700000Y-84500000D03*
X81000000Y-71400000D03*
X78700000Y-79100000D03*
X89400000Y-77900000D03*
X110100000Y-74100000D03*
X109100000Y-83100000D03*
X84750000Y-71800000D03*
X89850000Y-84600000D03*
X84600000Y-85800000D03*
X84400000Y-75700000D03*
X84600000Y-81100000D03*
X109100000Y-84400000D03*
X110600000Y-84400000D03*
X100500000Y-74000000D03*
X74000000Y-70200000D03*
X112000000Y-84500000D03*
X83200000Y-72000000D03*
X93900000Y-78900000D03*
%TO.N,/BOOT0*%
X86800000Y-71700000D03*
X90000000Y-75000000D03*
%TD*%
D15*
%TO.N,/BOOT0*%
X90000000Y-74900000D02*
X90000000Y-75000000D01*
X86800000Y-71700000D02*
X90000000Y-74900000D01*
%TD*%
%TA.AperFunction,Conductor*%
%TO.N,GND*%
G36*
X116003736Y-57000726D02*
G01*
X116293796Y-57018271D01*
X116308659Y-57020076D01*
X116590798Y-57071780D01*
X116605335Y-57075363D01*
X116879172Y-57160695D01*
X116893163Y-57166000D01*
X117154743Y-57283727D01*
X117167989Y-57290680D01*
X117413465Y-57439075D01*
X117425776Y-57447573D01*
X117651573Y-57624473D01*
X117662781Y-57634403D01*
X117865596Y-57837218D01*
X117875526Y-57848426D01*
X117995481Y-58001538D01*
X118052422Y-58074217D01*
X118060928Y-58086540D01*
X118209316Y-58332004D01*
X118216275Y-58345263D01*
X118333997Y-58606831D01*
X118339306Y-58620832D01*
X118424635Y-58894663D01*
X118428219Y-58909201D01*
X118479923Y-59191340D01*
X118481728Y-59206205D01*
X118499274Y-59496263D01*
X118499500Y-59503750D01*
X118499500Y-94496249D01*
X118499274Y-94503736D01*
X118481728Y-94793794D01*
X118479923Y-94808659D01*
X118428219Y-95090798D01*
X118424635Y-95105336D01*
X118339306Y-95379167D01*
X118333997Y-95393168D01*
X118216275Y-95654736D01*
X118209316Y-95667995D01*
X118060928Y-95913459D01*
X118052422Y-95925782D01*
X117875526Y-96151573D01*
X117865596Y-96162781D01*
X117662781Y-96365596D01*
X117651573Y-96375526D01*
X117425782Y-96552422D01*
X117413459Y-96560928D01*
X117167995Y-96709316D01*
X117154736Y-96716275D01*
X116893168Y-96833997D01*
X116879167Y-96839306D01*
X116605336Y-96924635D01*
X116590798Y-96928219D01*
X116308659Y-96979923D01*
X116293794Y-96981728D01*
X116003736Y-96999274D01*
X115996249Y-96999500D01*
X71003751Y-96999500D01*
X70996264Y-96999274D01*
X70706205Y-96981728D01*
X70691340Y-96979923D01*
X70409201Y-96928219D01*
X70394663Y-96924635D01*
X70120832Y-96839306D01*
X70106831Y-96833997D01*
X69845263Y-96716275D01*
X69832004Y-96709316D01*
X69586540Y-96560928D01*
X69574217Y-96552422D01*
X69348426Y-96375526D01*
X69337218Y-96365596D01*
X69134403Y-96162781D01*
X69124473Y-96151573D01*
X68947573Y-95925776D01*
X68939075Y-95913465D01*
X68790680Y-95667989D01*
X68783727Y-95654743D01*
X68666000Y-95393163D01*
X68660693Y-95379167D01*
X68660190Y-95377554D01*
X68575363Y-95105335D01*
X68571780Y-95090798D01*
X68520076Y-94808659D01*
X68518271Y-94793794D01*
X68518212Y-94792826D01*
X68500726Y-94503736D01*
X68500500Y-94496249D01*
X68500500Y-94401577D01*
X69749500Y-94401577D01*
X69749500Y-94598422D01*
X69780290Y-94792826D01*
X69841117Y-94980029D01*
X69930476Y-95155405D01*
X70046172Y-95314646D01*
X70185354Y-95453828D01*
X70344595Y-95569524D01*
X70427455Y-95611743D01*
X70519970Y-95658882D01*
X70519972Y-95658882D01*
X70519975Y-95658884D01*
X70548016Y-95667995D01*
X70707173Y-95719709D01*
X70901578Y-95750500D01*
X70901583Y-95750500D01*
X71098422Y-95750500D01*
X71292826Y-95719709D01*
X71480025Y-95658884D01*
X71655405Y-95569524D01*
X71814646Y-95453828D01*
X71953828Y-95314646D01*
X72069524Y-95155405D01*
X72158884Y-94980025D01*
X72219709Y-94792826D01*
X72238851Y-94671969D01*
X72250500Y-94598422D01*
X72250500Y-94401577D01*
X72219709Y-94207173D01*
X72183450Y-94095581D01*
X72158884Y-94019975D01*
X72158882Y-94019972D01*
X72158882Y-94019970D01*
X72111743Y-93927455D01*
X72069524Y-93844595D01*
X71953828Y-93685354D01*
X71873605Y-93605131D01*
X85539500Y-93605131D01*
X85539500Y-95394856D01*
X85539502Y-95394882D01*
X85542413Y-95419987D01*
X85542415Y-95419991D01*
X85587793Y-95522764D01*
X85587794Y-95522765D01*
X85667235Y-95602206D01*
X85770009Y-95647585D01*
X85795135Y-95650500D01*
X87584864Y-95650499D01*
X87584879Y-95650497D01*
X87584882Y-95650497D01*
X87609987Y-95647586D01*
X87609988Y-95647585D01*
X87609991Y-95647585D01*
X87712765Y-95602206D01*
X87792206Y-95522765D01*
X87837585Y-95419991D01*
X87840500Y-95394865D01*
X87840499Y-94657125D01*
X87860183Y-94590089D01*
X87912987Y-94544334D01*
X87982146Y-94534390D01*
X88045702Y-94563415D01*
X88083476Y-94622193D01*
X88086972Y-94637729D01*
X88107829Y-94769410D01*
X88163787Y-94941636D01*
X88163788Y-94941639D01*
X88246006Y-95102997D01*
X88352441Y-95249494D01*
X88352445Y-95249499D01*
X88480500Y-95377554D01*
X88480505Y-95377558D01*
X88585479Y-95453825D01*
X88627006Y-95483996D01*
X88703094Y-95522765D01*
X88788360Y-95566211D01*
X88788363Y-95566212D01*
X88874476Y-95594191D01*
X88960591Y-95622171D01*
X89043429Y-95635291D01*
X89139449Y-95650500D01*
X89139454Y-95650500D01*
X89320551Y-95650500D01*
X89407259Y-95636765D01*
X89499409Y-95622171D01*
X89671639Y-95566211D01*
X89832994Y-95483996D01*
X89979501Y-95377553D01*
X90107553Y-95249501D01*
X90213996Y-95102994D01*
X90296211Y-94941639D01*
X90352171Y-94769409D01*
X90367604Y-94671969D01*
X90377527Y-94609321D01*
X90407456Y-94546186D01*
X90466768Y-94509255D01*
X90536630Y-94510253D01*
X90594863Y-94548863D01*
X90622473Y-94609321D01*
X90647829Y-94769410D01*
X90703787Y-94941636D01*
X90703788Y-94941639D01*
X90786006Y-95102997D01*
X90892441Y-95249494D01*
X90892445Y-95249499D01*
X91020500Y-95377554D01*
X91020505Y-95377558D01*
X91125479Y-95453825D01*
X91167006Y-95483996D01*
X91243094Y-95522765D01*
X91328360Y-95566211D01*
X91328363Y-95566212D01*
X91414476Y-95594191D01*
X91500591Y-95622171D01*
X91583429Y-95635291D01*
X91679449Y-95650500D01*
X91679454Y-95650500D01*
X91860551Y-95650500D01*
X91947259Y-95636765D01*
X92039409Y-95622171D01*
X92211639Y-95566211D01*
X92372994Y-95483996D01*
X92495669Y-95394868D01*
X92519495Y-95377558D01*
X92519497Y-95377555D01*
X92519501Y-95377553D01*
X92647553Y-95249501D01*
X92753996Y-95102994D01*
X92821090Y-94971314D01*
X92869065Y-94920519D01*
X92936886Y-94903724D01*
X93003021Y-94926262D01*
X93046472Y-94980977D01*
X93049506Y-94989292D01*
X93058904Y-95018217D01*
X93155375Y-95207550D01*
X93194728Y-95261716D01*
X93827037Y-94629408D01*
X93844075Y-94692993D01*
X93909901Y-94807007D01*
X94002993Y-94900099D01*
X94117007Y-94965925D01*
X94180590Y-94982962D01*
X93548282Y-95615269D01*
X93548282Y-95615270D01*
X93602449Y-95654624D01*
X93791782Y-95751095D01*
X93993870Y-95816757D01*
X94203754Y-95850000D01*
X94416246Y-95850000D01*
X94626127Y-95816757D01*
X94626130Y-95816757D01*
X94828217Y-95751095D01*
X95017554Y-95654622D01*
X95071716Y-95615270D01*
X95071717Y-95615270D01*
X94439408Y-94982962D01*
X94502993Y-94965925D01*
X94617007Y-94900099D01*
X94710099Y-94807007D01*
X94775925Y-94692993D01*
X94792962Y-94629408D01*
X95425270Y-95261717D01*
X95425270Y-95261716D01*
X95464622Y-95207554D01*
X95561095Y-95018217D01*
X95626757Y-94816130D01*
X95626757Y-94816127D01*
X95660000Y-94606246D01*
X95660000Y-94401577D01*
X114749500Y-94401577D01*
X114749500Y-94598422D01*
X114780290Y-94792826D01*
X114841117Y-94980029D01*
X114930476Y-95155405D01*
X115046172Y-95314646D01*
X115185354Y-95453828D01*
X115344595Y-95569524D01*
X115427455Y-95611743D01*
X115519970Y-95658882D01*
X115519972Y-95658882D01*
X115519975Y-95658884D01*
X115548016Y-95667995D01*
X115707173Y-95719709D01*
X115901578Y-95750500D01*
X115901583Y-95750500D01*
X116098422Y-95750500D01*
X116292826Y-95719709D01*
X116480025Y-95658884D01*
X116655405Y-95569524D01*
X116814646Y-95453828D01*
X116953828Y-95314646D01*
X117069524Y-95155405D01*
X117158884Y-94980025D01*
X117219709Y-94792826D01*
X117238851Y-94671969D01*
X117250500Y-94598422D01*
X117250500Y-94401577D01*
X117219709Y-94207173D01*
X117183450Y-94095581D01*
X117158884Y-94019975D01*
X117158882Y-94019972D01*
X117158882Y-94019970D01*
X117111743Y-93927455D01*
X117069524Y-93844595D01*
X116953828Y-93685354D01*
X116814646Y-93546172D01*
X116655405Y-93430476D01*
X116591261Y-93397793D01*
X116480029Y-93341117D01*
X116292826Y-93280290D01*
X116098422Y-93249500D01*
X116098417Y-93249500D01*
X115901583Y-93249500D01*
X115901578Y-93249500D01*
X115707173Y-93280290D01*
X115519970Y-93341117D01*
X115344594Y-93430476D01*
X115280238Y-93477234D01*
X115185354Y-93546172D01*
X115185352Y-93546174D01*
X115185351Y-93546174D01*
X115046174Y-93685351D01*
X115046174Y-93685352D01*
X115046172Y-93685354D01*
X115007717Y-93738282D01*
X114930476Y-93844594D01*
X114841117Y-94019970D01*
X114780290Y-94207173D01*
X114749500Y-94401577D01*
X95660000Y-94401577D01*
X95660000Y-94393753D01*
X95626757Y-94183872D01*
X95626757Y-94183869D01*
X95561095Y-93981782D01*
X95464624Y-93792449D01*
X95425270Y-93738282D01*
X95425269Y-93738282D01*
X94792962Y-94370590D01*
X94775925Y-94307007D01*
X94710099Y-94192993D01*
X94617007Y-94099901D01*
X94502993Y-94034075D01*
X94439409Y-94017037D01*
X95071716Y-93384728D01*
X95017550Y-93345375D01*
X94828217Y-93248904D01*
X94626129Y-93183242D01*
X94416246Y-93150000D01*
X94203754Y-93150000D01*
X93993872Y-93183242D01*
X93993869Y-93183242D01*
X93791782Y-93248904D01*
X93602439Y-93345380D01*
X93548282Y-93384727D01*
X93548282Y-93384728D01*
X94180591Y-94017037D01*
X94117007Y-94034075D01*
X94002993Y-94099901D01*
X93909901Y-94192993D01*
X93844075Y-94307007D01*
X93827037Y-94370591D01*
X93194728Y-93738282D01*
X93194727Y-93738282D01*
X93155380Y-93792439D01*
X93058905Y-93981781D01*
X93049506Y-94010708D01*
X93010068Y-94068383D01*
X92945709Y-94095581D01*
X92876862Y-94083666D01*
X92825387Y-94036421D01*
X92821090Y-94028684D01*
X92797191Y-93981781D01*
X92753996Y-93897006D01*
X92740396Y-93878287D01*
X92647558Y-93750505D01*
X92647554Y-93750500D01*
X92519499Y-93622445D01*
X92519494Y-93622441D01*
X92395432Y-93532305D01*
X92372996Y-93516005D01*
X92211639Y-93433788D01*
X92211636Y-93433787D01*
X92039410Y-93377829D01*
X91860551Y-93349500D01*
X91860546Y-93349500D01*
X91679454Y-93349500D01*
X91679449Y-93349500D01*
X91500589Y-93377829D01*
X91328363Y-93433787D01*
X91328360Y-93433788D01*
X91167002Y-93516006D01*
X91020505Y-93622441D01*
X91020500Y-93622445D01*
X90892445Y-93750500D01*
X90892441Y-93750505D01*
X90786006Y-93897002D01*
X90703788Y-94058360D01*
X90703787Y-94058363D01*
X90647829Y-94230589D01*
X90622473Y-94390678D01*
X90592544Y-94453813D01*
X90533232Y-94490744D01*
X90463369Y-94489746D01*
X90405137Y-94451136D01*
X90377527Y-94390678D01*
X90363740Y-94303639D01*
X90352171Y-94230591D01*
X90309708Y-94099901D01*
X90296212Y-94058363D01*
X90296211Y-94058360D01*
X90257191Y-93981781D01*
X90213996Y-93897006D01*
X90200396Y-93878287D01*
X90107558Y-93750505D01*
X90107554Y-93750500D01*
X89979499Y-93622445D01*
X89979494Y-93622441D01*
X89832997Y-93516006D01*
X89832996Y-93516005D01*
X89832994Y-93516004D01*
X89756906Y-93477235D01*
X89671639Y-93433788D01*
X89671636Y-93433787D01*
X89499410Y-93377829D01*
X89320551Y-93349500D01*
X89320546Y-93349500D01*
X89139454Y-93349500D01*
X89139449Y-93349500D01*
X88960589Y-93377829D01*
X88788363Y-93433787D01*
X88788360Y-93433788D01*
X88627002Y-93516006D01*
X88480505Y-93622441D01*
X88480500Y-93622445D01*
X88352445Y-93750500D01*
X88352441Y-93750505D01*
X88246006Y-93897002D01*
X88163788Y-94058360D01*
X88163787Y-94058363D01*
X88107829Y-94230589D01*
X88086972Y-94362271D01*
X88057042Y-94425405D01*
X87997731Y-94462336D01*
X87927868Y-94461338D01*
X87869636Y-94422728D01*
X87841522Y-94358764D01*
X87840499Y-94342872D01*
X87840499Y-93605143D01*
X87840499Y-93605136D01*
X87840497Y-93605117D01*
X87837586Y-93580012D01*
X87837585Y-93580010D01*
X87837585Y-93580009D01*
X87792206Y-93477235D01*
X87712765Y-93397794D01*
X87712763Y-93397793D01*
X87609992Y-93352415D01*
X87584865Y-93349500D01*
X85795143Y-93349500D01*
X85795117Y-93349502D01*
X85770012Y-93352413D01*
X85770008Y-93352415D01*
X85667235Y-93397793D01*
X85587794Y-93477234D01*
X85542415Y-93580006D01*
X85542415Y-93580008D01*
X85539500Y-93605131D01*
X71873605Y-93605131D01*
X71814646Y-93546172D01*
X71655405Y-93430476D01*
X71591261Y-93397793D01*
X71480029Y-93341117D01*
X71292826Y-93280290D01*
X71098422Y-93249500D01*
X71098417Y-93249500D01*
X70901583Y-93249500D01*
X70901578Y-93249500D01*
X70707173Y-93280290D01*
X70519970Y-93341117D01*
X70344594Y-93430476D01*
X70280238Y-93477234D01*
X70185354Y-93546172D01*
X70185352Y-93546174D01*
X70185351Y-93546174D01*
X70046174Y-93685351D01*
X70046174Y-93685352D01*
X70046172Y-93685354D01*
X70007717Y-93738282D01*
X69930476Y-93844594D01*
X69841117Y-94019970D01*
X69780290Y-94207173D01*
X69749500Y-94401577D01*
X68500500Y-94401577D01*
X68500500Y-79023992D01*
X111249500Y-79023992D01*
X111249500Y-79226007D01*
X111288907Y-79424119D01*
X111288909Y-79424127D01*
X111366212Y-79610752D01*
X111366217Y-79610762D01*
X111478441Y-79778718D01*
X111621281Y-79921558D01*
X111789237Y-80033782D01*
X111789241Y-80033784D01*
X111789244Y-80033786D01*
X111975873Y-80111091D01*
X112173992Y-80150499D01*
X112173996Y-80150500D01*
X112173997Y-80150500D01*
X112926004Y-80150500D01*
X112926005Y-80150499D01*
X113124127Y-80111091D01*
X113310756Y-80033786D01*
X113478718Y-79921558D01*
X113621558Y-79778718D01*
X113733786Y-79610756D01*
X113811091Y-79424127D01*
X113850500Y-79226003D01*
X113850500Y-79188766D01*
X115149500Y-79188766D01*
X115149500Y-79361233D01*
X115183143Y-79530366D01*
X115183146Y-79530378D01*
X115249138Y-79689698D01*
X115249145Y-79689711D01*
X115344954Y-79833098D01*
X115344957Y-79833102D01*
X115466897Y-79955042D01*
X115466901Y-79955045D01*
X115610288Y-80050854D01*
X115610301Y-80050861D01*
X115755708Y-80111090D01*
X115769626Y-80116855D01*
X115938766Y-80150499D01*
X115938769Y-80150500D01*
X115938771Y-80150500D01*
X116761231Y-80150500D01*
X116761232Y-80150499D01*
X116930374Y-80116855D01*
X117089705Y-80050858D01*
X117233099Y-79955045D01*
X117355045Y-79833099D01*
X117450858Y-79689705D01*
X117516855Y-79530374D01*
X117550500Y-79361229D01*
X117550500Y-79188771D01*
X117550500Y-79188768D01*
X117550499Y-79188766D01*
X117516856Y-79019633D01*
X117516855Y-79019626D01*
X117516853Y-79019621D01*
X117450861Y-78860301D01*
X117450854Y-78860288D01*
X117355045Y-78716901D01*
X117355042Y-78716897D01*
X117233102Y-78594957D01*
X117233098Y-78594954D01*
X117089711Y-78499145D01*
X117089698Y-78499138D01*
X116930378Y-78433146D01*
X116930366Y-78433143D01*
X116761232Y-78399500D01*
X116761229Y-78399500D01*
X115938771Y-78399500D01*
X115938768Y-78399500D01*
X115769633Y-78433143D01*
X115769621Y-78433146D01*
X115610301Y-78499138D01*
X115610288Y-78499145D01*
X115466901Y-78594954D01*
X115466897Y-78594957D01*
X115344957Y-78716897D01*
X115344954Y-78716901D01*
X115249145Y-78860288D01*
X115249138Y-78860301D01*
X115183146Y-79019621D01*
X115183143Y-79019633D01*
X115149500Y-79188766D01*
X113850500Y-79188766D01*
X113850500Y-79023997D01*
X113811091Y-78825873D01*
X113768354Y-78722697D01*
X113760885Y-78653227D01*
X113792160Y-78590748D01*
X113835457Y-78560685D01*
X113931811Y-78520775D01*
X114046542Y-78444114D01*
X114144114Y-78346542D01*
X114220775Y-78231811D01*
X114227236Y-78216214D01*
X114273578Y-78104332D01*
X114273580Y-78104328D01*
X114287975Y-78031959D01*
X114300500Y-77968995D01*
X114300500Y-77831004D01*
X114273581Y-77695677D01*
X114273580Y-77695676D01*
X114273580Y-77695672D01*
X114273578Y-77695667D01*
X114220778Y-77568195D01*
X114220771Y-77568182D01*
X114144114Y-77453458D01*
X114144111Y-77453454D01*
X114046545Y-77355888D01*
X114046541Y-77355885D01*
X113931817Y-77279228D01*
X113931804Y-77279221D01*
X113804332Y-77226421D01*
X113804322Y-77226418D01*
X113668995Y-77199500D01*
X113668993Y-77199500D01*
X113531007Y-77199500D01*
X113531005Y-77199500D01*
X113395677Y-77226418D01*
X113395667Y-77226421D01*
X113268195Y-77279221D01*
X113268182Y-77279228D01*
X113153458Y-77355885D01*
X113153454Y-77355888D01*
X113055888Y-77453454D01*
X113055885Y-77453458D01*
X112979228Y-77568182D01*
X112979221Y-77568195D01*
X112926421Y-77695667D01*
X112926418Y-77695677D01*
X112899500Y-77831004D01*
X112899500Y-77975085D01*
X112896710Y-77975085D01*
X112885942Y-78031959D01*
X112837892Y-78082683D01*
X112775541Y-78099500D01*
X112173992Y-78099500D01*
X111975880Y-78138907D01*
X111975872Y-78138909D01*
X111789247Y-78216212D01*
X111789237Y-78216217D01*
X111621281Y-78328441D01*
X111478441Y-78471281D01*
X111366217Y-78639237D01*
X111366212Y-78639247D01*
X111288909Y-78825872D01*
X111288907Y-78825880D01*
X111249500Y-79023992D01*
X68500500Y-79023992D01*
X68500500Y-71611304D01*
X85899500Y-71611304D01*
X85899500Y-71788695D01*
X85934103Y-71962658D01*
X85934106Y-71962667D01*
X86001983Y-72126540D01*
X86001990Y-72126553D01*
X86100535Y-72274034D01*
X86100538Y-72274038D01*
X86225961Y-72399461D01*
X86225965Y-72399464D01*
X86373446Y-72498009D01*
X86373459Y-72498016D01*
X86496363Y-72548923D01*
X86537334Y-72565894D01*
X86537336Y-72565894D01*
X86537341Y-72565896D01*
X86711304Y-72600499D01*
X86711307Y-72600500D01*
X86711309Y-72600500D01*
X86888692Y-72600500D01*
X86900923Y-72598066D01*
X86969406Y-72584444D01*
X87038994Y-72590670D01*
X87081277Y-72618380D01*
X89098209Y-74635312D01*
X89131694Y-74696635D01*
X89132145Y-74747184D01*
X89099500Y-74911304D01*
X89099500Y-75088695D01*
X89134103Y-75262658D01*
X89134106Y-75262667D01*
X89201983Y-75426540D01*
X89201990Y-75426553D01*
X89300535Y-75574034D01*
X89300538Y-75574038D01*
X89425961Y-75699461D01*
X89425965Y-75699464D01*
X89573446Y-75798009D01*
X89573459Y-75798016D01*
X89696363Y-75848923D01*
X89737334Y-75865894D01*
X89737336Y-75865894D01*
X89737341Y-75865896D01*
X89911304Y-75900499D01*
X89911307Y-75900500D01*
X89911309Y-75900500D01*
X90088693Y-75900500D01*
X90088694Y-75900499D01*
X90146682Y-75888964D01*
X90262658Y-75865896D01*
X90262661Y-75865894D01*
X90262666Y-75865894D01*
X90426547Y-75798013D01*
X90574035Y-75699464D01*
X90699464Y-75574035D01*
X90798013Y-75426547D01*
X90865894Y-75262666D01*
X90900500Y-75088691D01*
X90900500Y-74911309D01*
X90900500Y-74911306D01*
X90900499Y-74911304D01*
X90865896Y-74737341D01*
X90865893Y-74737332D01*
X90798016Y-74573459D01*
X90798009Y-74573446D01*
X90699464Y-74425965D01*
X90699461Y-74425961D01*
X90574038Y-74300538D01*
X90574034Y-74300535D01*
X90426553Y-74201990D01*
X90426540Y-74201983D01*
X90262667Y-74134106D01*
X90262658Y-74134103D01*
X90088694Y-74099500D01*
X90088691Y-74099500D01*
X89911309Y-74099500D01*
X89911307Y-74099500D01*
X89905245Y-74100097D01*
X89905055Y-74098168D01*
X89844383Y-74092725D01*
X89802130Y-74065027D01*
X87718380Y-71981277D01*
X87684895Y-71919954D01*
X87684444Y-71869408D01*
X87700500Y-71788691D01*
X87700500Y-71611309D01*
X87700500Y-71611306D01*
X87700499Y-71611304D01*
X87696679Y-71592096D01*
X87693078Y-71573992D01*
X111249500Y-71573992D01*
X111249500Y-71776007D01*
X111288907Y-71974119D01*
X111288909Y-71974127D01*
X111366212Y-72160752D01*
X111366217Y-72160762D01*
X111478441Y-72328718D01*
X111621281Y-72471558D01*
X111789237Y-72583782D01*
X111789241Y-72583784D01*
X111789244Y-72583786D01*
X111975873Y-72661091D01*
X112149700Y-72695667D01*
X112173992Y-72700499D01*
X112173996Y-72700500D01*
X112173997Y-72700500D01*
X112775541Y-72700500D01*
X112842580Y-72720185D01*
X112888335Y-72772989D01*
X112896980Y-72824915D01*
X112899500Y-72824915D01*
X112899500Y-72831007D01*
X112899500Y-72968993D01*
X112899500Y-72968995D01*
X112899499Y-72968995D01*
X112926418Y-73104322D01*
X112926421Y-73104332D01*
X112979221Y-73231804D01*
X112979228Y-73231817D01*
X113055885Y-73346541D01*
X113055888Y-73346545D01*
X113153454Y-73444111D01*
X113153458Y-73444114D01*
X113268182Y-73520771D01*
X113268195Y-73520778D01*
X113395667Y-73573578D01*
X113395672Y-73573580D01*
X113395676Y-73573580D01*
X113395677Y-73573581D01*
X113531004Y-73600500D01*
X113531007Y-73600500D01*
X113668995Y-73600500D01*
X113760041Y-73582389D01*
X113804328Y-73573580D01*
X113931811Y-73520775D01*
X114046542Y-73444114D01*
X114144114Y-73346542D01*
X114220775Y-73231811D01*
X114273580Y-73104328D01*
X114300500Y-72968993D01*
X114300500Y-72831007D01*
X114300500Y-72831004D01*
X114273581Y-72695677D01*
X114273580Y-72695676D01*
X114273580Y-72695672D01*
X114234159Y-72600500D01*
X114220778Y-72568195D01*
X114220771Y-72568182D01*
X114144114Y-72453458D01*
X114144111Y-72453454D01*
X114046545Y-72355888D01*
X114046541Y-72355885D01*
X113931817Y-72279228D01*
X113931804Y-72279221D01*
X113835462Y-72239316D01*
X113781058Y-72195476D01*
X113758993Y-72129182D01*
X113768351Y-72077307D01*
X113811091Y-71974127D01*
X113850500Y-71776003D01*
X113850500Y-71573997D01*
X113850345Y-71573222D01*
X113827203Y-71456870D01*
X113823602Y-71438766D01*
X115149500Y-71438766D01*
X115149500Y-71611233D01*
X115183143Y-71780366D01*
X115183146Y-71780378D01*
X115249138Y-71939698D01*
X115249145Y-71939711D01*
X115344954Y-72083098D01*
X115344957Y-72083102D01*
X115466897Y-72205042D01*
X115466901Y-72205045D01*
X115610288Y-72300854D01*
X115610301Y-72300861D01*
X115743142Y-72355885D01*
X115769626Y-72366855D01*
X115933548Y-72399461D01*
X115938766Y-72400499D01*
X115938769Y-72400500D01*
X115938771Y-72400500D01*
X116761231Y-72400500D01*
X116761232Y-72400499D01*
X116930374Y-72366855D01*
X117089705Y-72300858D01*
X117233099Y-72205045D01*
X117355045Y-72083099D01*
X117450858Y-71939705D01*
X117516855Y-71780374D01*
X117550500Y-71611229D01*
X117550500Y-71438771D01*
X117550500Y-71438768D01*
X117550499Y-71438766D01*
X117537989Y-71375873D01*
X117516855Y-71269626D01*
X117457349Y-71125965D01*
X117450861Y-71110301D01*
X117450854Y-71110288D01*
X117355045Y-70966901D01*
X117355042Y-70966897D01*
X117233102Y-70844957D01*
X117233098Y-70844954D01*
X117089711Y-70749145D01*
X117089698Y-70749138D01*
X116930378Y-70683146D01*
X116930366Y-70683143D01*
X116761232Y-70649500D01*
X116761229Y-70649500D01*
X115938771Y-70649500D01*
X115938768Y-70649500D01*
X115769633Y-70683143D01*
X115769621Y-70683146D01*
X115610301Y-70749138D01*
X115610288Y-70749145D01*
X115466901Y-70844954D01*
X115466897Y-70844957D01*
X115344957Y-70966897D01*
X115344954Y-70966901D01*
X115249145Y-71110288D01*
X115249138Y-71110301D01*
X115183146Y-71269621D01*
X115183143Y-71269633D01*
X115149500Y-71438766D01*
X113823602Y-71438766D01*
X113811092Y-71375880D01*
X113811091Y-71375873D01*
X113733786Y-71189244D01*
X113733784Y-71189241D01*
X113733782Y-71189237D01*
X113621558Y-71021281D01*
X113478718Y-70878441D01*
X113310762Y-70766217D01*
X113310752Y-70766212D01*
X113124127Y-70688909D01*
X113124119Y-70688907D01*
X112926007Y-70649500D01*
X112926003Y-70649500D01*
X112173997Y-70649500D01*
X112173992Y-70649500D01*
X111975880Y-70688907D01*
X111975872Y-70688909D01*
X111789247Y-70766212D01*
X111789237Y-70766217D01*
X111621281Y-70878441D01*
X111478441Y-71021281D01*
X111366217Y-71189237D01*
X111366212Y-71189247D01*
X111288909Y-71375872D01*
X111288907Y-71375880D01*
X111249500Y-71573992D01*
X87693078Y-71573992D01*
X87665895Y-71437340D01*
X87665894Y-71437334D01*
X87640436Y-71375872D01*
X87598016Y-71273459D01*
X87598009Y-71273446D01*
X87499464Y-71125965D01*
X87499461Y-71125961D01*
X87374038Y-71000538D01*
X87374034Y-71000535D01*
X87226553Y-70901990D01*
X87226540Y-70901983D01*
X87062667Y-70834106D01*
X87062658Y-70834103D01*
X86888694Y-70799500D01*
X86888691Y-70799500D01*
X86711309Y-70799500D01*
X86711306Y-70799500D01*
X86537341Y-70834103D01*
X86537332Y-70834106D01*
X86373459Y-70901983D01*
X86373446Y-70901990D01*
X86225965Y-71000535D01*
X86225961Y-71000538D01*
X86100538Y-71125961D01*
X86100535Y-71125965D01*
X86001990Y-71273446D01*
X86001983Y-71273459D01*
X85934106Y-71437332D01*
X85934103Y-71437341D01*
X85899500Y-71611304D01*
X68500500Y-71611304D01*
X68500500Y-69564071D01*
X69519499Y-69564071D01*
X69544497Y-69689738D01*
X69544499Y-69689744D01*
X69593533Y-69808124D01*
X69593538Y-69808133D01*
X69664723Y-69914668D01*
X69664726Y-69914672D01*
X69755327Y-70005273D01*
X69755331Y-70005276D01*
X69861866Y-70076461D01*
X69861872Y-70076464D01*
X69861873Y-70076465D01*
X69980256Y-70125501D01*
X69980260Y-70125501D01*
X69980261Y-70125502D01*
X70105928Y-70150500D01*
X70105931Y-70150500D01*
X70234071Y-70150500D01*
X70318615Y-70133682D01*
X70359744Y-70125501D01*
X70478127Y-70076465D01*
X70584669Y-70005276D01*
X70675276Y-69914669D01*
X70746465Y-69808127D01*
X70795501Y-69689744D01*
X70820500Y-69564069D01*
X70820500Y-69435931D01*
X70820500Y-69435928D01*
X70795502Y-69310261D01*
X70795501Y-69310260D01*
X70795501Y-69310256D01*
X70746465Y-69191873D01*
X70746464Y-69191872D01*
X70746461Y-69191866D01*
X70675276Y-69085331D01*
X70675273Y-69085327D01*
X70584672Y-68994726D01*
X70584668Y-68994723D01*
X70478133Y-68923538D01*
X70478124Y-68923533D01*
X70359744Y-68874499D01*
X70359738Y-68874497D01*
X70234071Y-68849500D01*
X70234069Y-68849500D01*
X70105931Y-68849500D01*
X70105929Y-68849500D01*
X69980261Y-68874497D01*
X69980255Y-68874499D01*
X69861875Y-68923533D01*
X69861866Y-68923538D01*
X69755331Y-68994723D01*
X69755327Y-68994726D01*
X69664726Y-69085327D01*
X69664723Y-69085331D01*
X69593538Y-69191866D01*
X69593533Y-69191875D01*
X69544499Y-69310255D01*
X69544497Y-69310261D01*
X69519500Y-69435928D01*
X69519500Y-69435931D01*
X69519500Y-69564069D01*
X69519500Y-69564071D01*
X69519499Y-69564071D01*
X68500500Y-69564071D01*
X68500500Y-66564071D01*
X69519499Y-66564071D01*
X69544497Y-66689738D01*
X69544499Y-66689744D01*
X69593533Y-66808124D01*
X69593538Y-66808133D01*
X69664723Y-66914668D01*
X69664726Y-66914672D01*
X69755327Y-67005273D01*
X69755331Y-67005276D01*
X69861866Y-67076461D01*
X69861872Y-67076464D01*
X69861873Y-67076465D01*
X69980256Y-67125501D01*
X69980260Y-67125501D01*
X69980261Y-67125502D01*
X70105928Y-67150500D01*
X70105931Y-67150500D01*
X70234071Y-67150500D01*
X70318615Y-67133682D01*
X70359744Y-67125501D01*
X70478127Y-67076465D01*
X70584669Y-67005276D01*
X70675276Y-66914669D01*
X70746465Y-66808127D01*
X70795501Y-66689744D01*
X70820500Y-66564069D01*
X70820500Y-66435931D01*
X70820500Y-66435928D01*
X70795502Y-66310261D01*
X70795501Y-66310260D01*
X70795501Y-66310256D01*
X70746465Y-66191873D01*
X70746464Y-66191872D01*
X70746461Y-66191866D01*
X70675276Y-66085331D01*
X70675273Y-66085327D01*
X70584672Y-65994726D01*
X70584668Y-65994723D01*
X70478133Y-65923538D01*
X70478124Y-65923533D01*
X70359744Y-65874499D01*
X70359738Y-65874497D01*
X70234071Y-65849500D01*
X70234069Y-65849500D01*
X70105931Y-65849500D01*
X70105929Y-65849500D01*
X69980261Y-65874497D01*
X69980255Y-65874499D01*
X69861875Y-65923533D01*
X69861866Y-65923538D01*
X69755331Y-65994723D01*
X69755327Y-65994726D01*
X69664726Y-66085327D01*
X69664723Y-66085331D01*
X69593538Y-66191866D01*
X69593533Y-66191875D01*
X69544499Y-66310255D01*
X69544497Y-66310261D01*
X69519500Y-66435928D01*
X69519500Y-66435931D01*
X69519500Y-66564069D01*
X69519500Y-66564071D01*
X69519499Y-66564071D01*
X68500500Y-66564071D01*
X68500500Y-59503750D01*
X68500726Y-59496263D01*
X68506454Y-59401577D01*
X69749500Y-59401577D01*
X69749500Y-59598422D01*
X69780290Y-59792826D01*
X69841117Y-59980029D01*
X69903771Y-60102994D01*
X69930476Y-60155405D01*
X70046172Y-60314646D01*
X70185354Y-60453828D01*
X70344595Y-60569524D01*
X70427455Y-60611743D01*
X70519970Y-60658882D01*
X70519972Y-60658882D01*
X70519975Y-60658884D01*
X70620317Y-60691487D01*
X70707173Y-60719709D01*
X70901578Y-60750500D01*
X70901583Y-60750500D01*
X71098422Y-60750500D01*
X71292826Y-60719709D01*
X71480025Y-60658884D01*
X71655405Y-60569524D01*
X71814646Y-60453828D01*
X71953828Y-60314646D01*
X72069524Y-60155405D01*
X72158884Y-59980025D01*
X72219709Y-59792826D01*
X72235521Y-59692993D01*
X72250500Y-59598422D01*
X72250500Y-59401580D01*
X72250499Y-59401574D01*
X72249260Y-59393753D01*
X82570000Y-59393753D01*
X82570000Y-59606246D01*
X82603242Y-59816127D01*
X82603242Y-59816130D01*
X82668904Y-60018217D01*
X82765375Y-60207550D01*
X82804728Y-60261716D01*
X83437037Y-59629408D01*
X83454075Y-59692993D01*
X83519901Y-59807007D01*
X83612993Y-59900099D01*
X83727007Y-59965925D01*
X83790590Y-59982962D01*
X83158282Y-60615269D01*
X83158282Y-60615270D01*
X83212449Y-60654624D01*
X83401782Y-60751095D01*
X83603870Y-60816757D01*
X83813754Y-60850000D01*
X84026246Y-60850000D01*
X84236127Y-60816757D01*
X84236130Y-60816757D01*
X84438217Y-60751095D01*
X84627554Y-60654622D01*
X84681716Y-60615270D01*
X84681717Y-60615270D01*
X84049408Y-59982962D01*
X84112993Y-59965925D01*
X84227007Y-59900099D01*
X84320099Y-59807007D01*
X84385925Y-59692993D01*
X84402962Y-59629409D01*
X85035270Y-60261717D01*
X85035270Y-60261716D01*
X85074622Y-60207554D01*
X85171095Y-60018217D01*
X85180492Y-59989295D01*
X85219928Y-59931618D01*
X85284286Y-59904419D01*
X85353133Y-59916331D01*
X85404610Y-59963574D01*
X85408908Y-59971314D01*
X85476004Y-60102995D01*
X85582441Y-60249494D01*
X85582445Y-60249499D01*
X85710500Y-60377554D01*
X85710505Y-60377558D01*
X85834565Y-60467692D01*
X85857006Y-60483996D01*
X85933094Y-60522765D01*
X86018360Y-60566211D01*
X86018363Y-60566212D01*
X86104476Y-60594191D01*
X86190591Y-60622171D01*
X86273429Y-60635291D01*
X86369449Y-60650500D01*
X86369454Y-60650500D01*
X86550551Y-60650500D01*
X86637259Y-60636765D01*
X86729409Y-60622171D01*
X86901639Y-60566211D01*
X87062994Y-60483996D01*
X87209501Y-60377553D01*
X87337553Y-60249501D01*
X87443996Y-60102994D01*
X87526211Y-59941639D01*
X87582171Y-59769409D01*
X87603027Y-59637729D01*
X87607527Y-59609321D01*
X87637456Y-59546186D01*
X87696768Y-59509255D01*
X87766630Y-59510253D01*
X87824863Y-59548863D01*
X87852473Y-59609321D01*
X87877829Y-59769410D01*
X87933787Y-59941636D01*
X87933788Y-59941639D01*
X88016006Y-60102997D01*
X88122441Y-60249494D01*
X88122445Y-60249499D01*
X88250500Y-60377554D01*
X88250505Y-60377558D01*
X88374565Y-60467692D01*
X88397006Y-60483996D01*
X88473094Y-60522765D01*
X88558360Y-60566211D01*
X88558363Y-60566212D01*
X88644476Y-60594191D01*
X88730591Y-60622171D01*
X88813429Y-60635291D01*
X88909449Y-60650500D01*
X88909454Y-60650500D01*
X89090551Y-60650500D01*
X89177259Y-60636765D01*
X89269409Y-60622171D01*
X89441639Y-60566211D01*
X89602994Y-60483996D01*
X89749501Y-60377553D01*
X89877553Y-60249501D01*
X89983996Y-60102994D01*
X90066211Y-59941639D01*
X90122171Y-59769409D01*
X90143027Y-59637729D01*
X90172956Y-59574595D01*
X90232267Y-59537663D01*
X90302130Y-59538661D01*
X90360363Y-59577271D01*
X90388477Y-59641234D01*
X90389500Y-59657127D01*
X90389500Y-60394856D01*
X90389502Y-60394882D01*
X90392413Y-60419987D01*
X90392415Y-60419991D01*
X90437793Y-60522764D01*
X90437794Y-60522765D01*
X90517235Y-60602206D01*
X90620009Y-60647585D01*
X90645135Y-60650500D01*
X92434864Y-60650499D01*
X92434879Y-60650497D01*
X92434882Y-60650497D01*
X92459987Y-60647586D01*
X92459988Y-60647585D01*
X92459991Y-60647585D01*
X92562765Y-60602206D01*
X92642206Y-60522765D01*
X92687585Y-60419991D01*
X92690500Y-60394865D01*
X92690499Y-59393753D01*
X97610000Y-59393753D01*
X97610000Y-59606246D01*
X97643242Y-59816127D01*
X97643242Y-59816130D01*
X97708904Y-60018217D01*
X97805375Y-60207550D01*
X97844728Y-60261716D01*
X98477037Y-59629408D01*
X98494075Y-59692993D01*
X98559901Y-59807007D01*
X98652993Y-59900099D01*
X98767007Y-59965925D01*
X98830590Y-59982962D01*
X98198282Y-60615269D01*
X98198282Y-60615270D01*
X98252449Y-60654624D01*
X98441782Y-60751095D01*
X98643870Y-60816757D01*
X98853754Y-60850000D01*
X99066246Y-60850000D01*
X99276127Y-60816757D01*
X99276130Y-60816757D01*
X99478217Y-60751095D01*
X99667554Y-60654622D01*
X99721716Y-60615270D01*
X99721717Y-60615270D01*
X99089408Y-59982962D01*
X99152993Y-59965925D01*
X99267007Y-59900099D01*
X99360099Y-59807007D01*
X99425925Y-59692993D01*
X99442962Y-59629408D01*
X100075270Y-60261717D01*
X100075270Y-60261716D01*
X100114622Y-60207554D01*
X100211095Y-60018217D01*
X100220492Y-59989295D01*
X100259928Y-59931618D01*
X100324286Y-59904419D01*
X100393133Y-59916331D01*
X100444610Y-59963574D01*
X100448908Y-59971314D01*
X100516004Y-60102995D01*
X100622441Y-60249494D01*
X100622445Y-60249499D01*
X100750500Y-60377554D01*
X100750505Y-60377558D01*
X100874565Y-60467692D01*
X100897006Y-60483996D01*
X100973094Y-60522765D01*
X101058360Y-60566211D01*
X101058363Y-60566212D01*
X101144476Y-60594191D01*
X101230591Y-60622171D01*
X101313429Y-60635291D01*
X101409449Y-60650500D01*
X101409454Y-60650500D01*
X101590551Y-60650500D01*
X101677259Y-60636765D01*
X101769409Y-60622171D01*
X101941639Y-60566211D01*
X102102994Y-60483996D01*
X102249501Y-60377553D01*
X102377553Y-60249501D01*
X102483996Y-60102994D01*
X102566211Y-59941639D01*
X102622171Y-59769409D01*
X102643027Y-59637729D01*
X102647527Y-59609321D01*
X102677456Y-59546186D01*
X102736768Y-59509255D01*
X102806630Y-59510253D01*
X102864863Y-59548863D01*
X102892473Y-59609321D01*
X102917829Y-59769410D01*
X102973787Y-59941636D01*
X102973788Y-59941639D01*
X103056006Y-60102997D01*
X103162441Y-60249494D01*
X103162445Y-60249499D01*
X103290500Y-60377554D01*
X103290505Y-60377558D01*
X103414565Y-60467692D01*
X103437006Y-60483996D01*
X103513094Y-60522765D01*
X103598360Y-60566211D01*
X103598363Y-60566212D01*
X103684476Y-60594191D01*
X103770591Y-60622171D01*
X103853429Y-60635291D01*
X103949449Y-60650500D01*
X103949454Y-60650500D01*
X104130551Y-60650500D01*
X104217259Y-60636765D01*
X104309409Y-60622171D01*
X104481639Y-60566211D01*
X104642994Y-60483996D01*
X104789501Y-60377553D01*
X104917553Y-60249501D01*
X105023996Y-60102994D01*
X105106211Y-59941639D01*
X105162171Y-59769409D01*
X105183027Y-59637729D01*
X105212956Y-59574595D01*
X105272267Y-59537663D01*
X105342130Y-59538661D01*
X105400363Y-59577271D01*
X105428477Y-59641234D01*
X105429500Y-59657127D01*
X105429500Y-60394856D01*
X105429502Y-60394882D01*
X105432413Y-60419987D01*
X105432415Y-60419991D01*
X105477793Y-60522764D01*
X105477794Y-60522765D01*
X105557235Y-60602206D01*
X105660009Y-60647585D01*
X105685135Y-60650500D01*
X107474864Y-60650499D01*
X107474879Y-60650497D01*
X107474882Y-60650497D01*
X107499987Y-60647586D01*
X107499988Y-60647585D01*
X107499991Y-60647585D01*
X107602765Y-60602206D01*
X107682206Y-60522765D01*
X107727585Y-60419991D01*
X107730500Y-60394865D01*
X107730499Y-59401577D01*
X114749500Y-59401577D01*
X114749500Y-59598422D01*
X114780290Y-59792826D01*
X114841117Y-59980029D01*
X114903771Y-60102994D01*
X114930476Y-60155405D01*
X115046172Y-60314646D01*
X115185354Y-60453828D01*
X115344595Y-60569524D01*
X115427455Y-60611743D01*
X115519970Y-60658882D01*
X115519972Y-60658882D01*
X115519975Y-60658884D01*
X115620317Y-60691487D01*
X115707173Y-60719709D01*
X115901578Y-60750500D01*
X115901583Y-60750500D01*
X116098422Y-60750500D01*
X116292826Y-60719709D01*
X116480025Y-60658884D01*
X116655405Y-60569524D01*
X116814646Y-60453828D01*
X116953828Y-60314646D01*
X117069524Y-60155405D01*
X117158884Y-59980025D01*
X117219709Y-59792826D01*
X117235521Y-59692993D01*
X117250500Y-59598422D01*
X117250500Y-59401577D01*
X117219709Y-59207173D01*
X117184854Y-59099901D01*
X117158884Y-59019975D01*
X117158882Y-59019972D01*
X117158882Y-59019970D01*
X117102442Y-58909201D01*
X117069524Y-58844595D01*
X116953828Y-58685354D01*
X116814646Y-58546172D01*
X116655405Y-58430476D01*
X116591261Y-58397793D01*
X116480029Y-58341117D01*
X116292826Y-58280290D01*
X116098422Y-58249500D01*
X116098417Y-58249500D01*
X115901583Y-58249500D01*
X115901578Y-58249500D01*
X115707173Y-58280290D01*
X115519970Y-58341117D01*
X115344594Y-58430476D01*
X115273577Y-58482074D01*
X115185354Y-58546172D01*
X115185352Y-58546174D01*
X115185351Y-58546174D01*
X115046174Y-58685351D01*
X115046174Y-58685352D01*
X115046172Y-58685354D01*
X115007717Y-58738282D01*
X114930476Y-58844594D01*
X114841117Y-59019970D01*
X114780290Y-59207173D01*
X114749500Y-59401577D01*
X107730499Y-59401577D01*
X107730499Y-58605136D01*
X107730497Y-58605117D01*
X107727586Y-58580012D01*
X107727585Y-58580010D01*
X107727585Y-58580009D01*
X107682206Y-58477235D01*
X107602765Y-58397794D01*
X107602763Y-58397793D01*
X107499992Y-58352415D01*
X107474865Y-58349500D01*
X105685143Y-58349500D01*
X105685117Y-58349502D01*
X105660012Y-58352413D01*
X105660008Y-58352415D01*
X105557235Y-58397793D01*
X105477794Y-58477234D01*
X105432415Y-58580006D01*
X105432415Y-58580008D01*
X105429500Y-58605131D01*
X105429500Y-59342871D01*
X105409815Y-59409910D01*
X105357011Y-59455665D01*
X105287853Y-59465609D01*
X105224297Y-59436584D01*
X105186523Y-59377806D01*
X105183027Y-59362269D01*
X105174274Y-59307007D01*
X105162171Y-59230591D01*
X105106211Y-59058361D01*
X105106211Y-59058360D01*
X105076474Y-59000000D01*
X105023996Y-58897006D01*
X105010396Y-58878287D01*
X104917558Y-58750505D01*
X104917554Y-58750500D01*
X104789499Y-58622445D01*
X104789494Y-58622441D01*
X104642997Y-58516006D01*
X104642996Y-58516005D01*
X104642994Y-58516004D01*
X104566906Y-58477235D01*
X104481639Y-58433788D01*
X104481636Y-58433787D01*
X104309410Y-58377829D01*
X104130551Y-58349500D01*
X104130546Y-58349500D01*
X103949454Y-58349500D01*
X103949449Y-58349500D01*
X103770589Y-58377829D01*
X103598363Y-58433787D01*
X103598360Y-58433788D01*
X103437002Y-58516006D01*
X103290505Y-58622441D01*
X103290500Y-58622445D01*
X103162445Y-58750500D01*
X103162441Y-58750505D01*
X103056006Y-58897002D01*
X102973788Y-59058360D01*
X102973787Y-59058363D01*
X102917829Y-59230589D01*
X102892473Y-59390678D01*
X102862544Y-59453813D01*
X102803232Y-59490744D01*
X102733369Y-59489746D01*
X102675137Y-59451136D01*
X102647527Y-59390678D01*
X102633740Y-59303639D01*
X102622171Y-59230591D01*
X102566211Y-59058361D01*
X102566211Y-59058360D01*
X102536474Y-59000000D01*
X102483996Y-58897006D01*
X102470396Y-58878287D01*
X102377558Y-58750505D01*
X102377554Y-58750500D01*
X102249499Y-58622445D01*
X102249494Y-58622441D01*
X102102997Y-58516006D01*
X102102996Y-58516005D01*
X102102994Y-58516004D01*
X102026906Y-58477235D01*
X101941639Y-58433788D01*
X101941636Y-58433787D01*
X101769410Y-58377829D01*
X101590551Y-58349500D01*
X101590546Y-58349500D01*
X101409454Y-58349500D01*
X101409449Y-58349500D01*
X101230589Y-58377829D01*
X101058363Y-58433787D01*
X101058360Y-58433788D01*
X100897002Y-58516006D01*
X100750505Y-58622441D01*
X100750500Y-58622445D01*
X100622445Y-58750500D01*
X100622441Y-58750505D01*
X100516004Y-58897004D01*
X100448908Y-59028685D01*
X100400933Y-59079480D01*
X100333112Y-59096275D01*
X100266977Y-59073737D01*
X100223527Y-59019021D01*
X100220492Y-59010705D01*
X100211094Y-58981780D01*
X100114624Y-58792449D01*
X100075270Y-58738282D01*
X100075269Y-58738282D01*
X99442962Y-59370590D01*
X99425925Y-59307007D01*
X99360099Y-59192993D01*
X99267007Y-59099901D01*
X99152993Y-59034075D01*
X99089409Y-59017037D01*
X99721716Y-58384728D01*
X99667550Y-58345375D01*
X99478217Y-58248904D01*
X99276129Y-58183242D01*
X99066246Y-58150000D01*
X98853754Y-58150000D01*
X98643872Y-58183242D01*
X98643869Y-58183242D01*
X98441782Y-58248904D01*
X98252439Y-58345380D01*
X98198282Y-58384727D01*
X98198282Y-58384728D01*
X98830591Y-59017037D01*
X98767007Y-59034075D01*
X98652993Y-59099901D01*
X98559901Y-59192993D01*
X98494075Y-59307007D01*
X98477037Y-59370591D01*
X97844728Y-58738282D01*
X97844727Y-58738282D01*
X97805380Y-58792439D01*
X97708904Y-58981782D01*
X97643242Y-59183869D01*
X97643242Y-59183872D01*
X97610000Y-59393753D01*
X92690499Y-59393753D01*
X92690499Y-58605136D01*
X92690497Y-58605117D01*
X92687586Y-58580012D01*
X92687585Y-58580011D01*
X92687585Y-58580009D01*
X92642206Y-58477235D01*
X92562765Y-58397794D01*
X92562763Y-58397793D01*
X92459992Y-58352415D01*
X92434865Y-58349500D01*
X90645143Y-58349500D01*
X90645117Y-58349502D01*
X90620012Y-58352413D01*
X90620008Y-58352415D01*
X90517235Y-58397793D01*
X90437794Y-58477234D01*
X90392415Y-58580006D01*
X90392415Y-58580008D01*
X90389500Y-58605131D01*
X90389500Y-59342871D01*
X90369815Y-59409910D01*
X90317011Y-59455665D01*
X90247853Y-59465609D01*
X90184297Y-59436584D01*
X90146523Y-59377806D01*
X90143027Y-59362269D01*
X90134274Y-59307007D01*
X90122171Y-59230591D01*
X90066211Y-59058361D01*
X90066211Y-59058360D01*
X90036474Y-59000000D01*
X89983996Y-58897006D01*
X89970396Y-58878287D01*
X89877558Y-58750505D01*
X89877554Y-58750500D01*
X89749499Y-58622445D01*
X89749494Y-58622441D01*
X89602997Y-58516006D01*
X89602996Y-58516005D01*
X89602994Y-58516004D01*
X89526906Y-58477235D01*
X89441639Y-58433788D01*
X89441636Y-58433787D01*
X89269410Y-58377829D01*
X89090551Y-58349500D01*
X89090546Y-58349500D01*
X88909454Y-58349500D01*
X88909449Y-58349500D01*
X88730589Y-58377829D01*
X88558363Y-58433787D01*
X88558360Y-58433788D01*
X88397002Y-58516006D01*
X88250505Y-58622441D01*
X88250500Y-58622445D01*
X88122445Y-58750500D01*
X88122441Y-58750505D01*
X88016006Y-58897002D01*
X87933788Y-59058360D01*
X87933787Y-59058363D01*
X87877829Y-59230589D01*
X87852473Y-59390678D01*
X87822544Y-59453813D01*
X87763232Y-59490744D01*
X87693369Y-59489746D01*
X87635137Y-59451136D01*
X87607527Y-59390678D01*
X87593740Y-59303639D01*
X87582171Y-59230591D01*
X87526211Y-59058361D01*
X87526211Y-59058360D01*
X87496474Y-59000000D01*
X87443996Y-58897006D01*
X87430396Y-58878287D01*
X87337558Y-58750505D01*
X87337554Y-58750500D01*
X87209499Y-58622445D01*
X87209494Y-58622441D01*
X87062997Y-58516006D01*
X87062996Y-58516005D01*
X87062994Y-58516004D01*
X86986906Y-58477235D01*
X86901639Y-58433788D01*
X86901636Y-58433787D01*
X86729410Y-58377829D01*
X86550551Y-58349500D01*
X86550546Y-58349500D01*
X86369454Y-58349500D01*
X86369449Y-58349500D01*
X86190589Y-58377829D01*
X86018363Y-58433787D01*
X86018360Y-58433788D01*
X85857002Y-58516006D01*
X85710505Y-58622441D01*
X85710500Y-58622445D01*
X85582445Y-58750500D01*
X85582441Y-58750505D01*
X85476004Y-58897004D01*
X85408908Y-59028685D01*
X85360933Y-59079480D01*
X85293112Y-59096275D01*
X85226977Y-59073737D01*
X85183527Y-59019021D01*
X85180492Y-59010705D01*
X85171094Y-58981780D01*
X85074624Y-58792449D01*
X85035270Y-58738282D01*
X85035269Y-58738282D01*
X84402962Y-59370590D01*
X84385925Y-59307007D01*
X84320099Y-59192993D01*
X84227007Y-59099901D01*
X84112993Y-59034075D01*
X84049409Y-59017037D01*
X84681716Y-58384728D01*
X84627550Y-58345375D01*
X84438217Y-58248904D01*
X84236129Y-58183242D01*
X84026246Y-58150000D01*
X83813754Y-58150000D01*
X83603872Y-58183242D01*
X83603869Y-58183242D01*
X83401782Y-58248904D01*
X83212439Y-58345380D01*
X83158282Y-58384727D01*
X83158282Y-58384728D01*
X83790591Y-59017037D01*
X83727007Y-59034075D01*
X83612993Y-59099901D01*
X83519901Y-59192993D01*
X83454075Y-59307007D01*
X83437037Y-59370591D01*
X82804728Y-58738282D01*
X82804727Y-58738282D01*
X82765380Y-58792439D01*
X82668904Y-58981782D01*
X82603242Y-59183869D01*
X82603242Y-59183872D01*
X82570000Y-59393753D01*
X72249260Y-59393753D01*
X72219709Y-59207173D01*
X72184854Y-59099901D01*
X72158884Y-59019975D01*
X72158882Y-59019972D01*
X72158882Y-59019970D01*
X72102442Y-58909201D01*
X72069524Y-58844595D01*
X71953828Y-58685354D01*
X71814646Y-58546172D01*
X71655405Y-58430476D01*
X71591261Y-58397793D01*
X71480029Y-58341117D01*
X71292826Y-58280290D01*
X71098422Y-58249500D01*
X71098417Y-58249500D01*
X70901583Y-58249500D01*
X70901578Y-58249500D01*
X70707173Y-58280290D01*
X70519970Y-58341117D01*
X70344594Y-58430476D01*
X70273577Y-58482074D01*
X70185354Y-58546172D01*
X70185352Y-58546174D01*
X70185351Y-58546174D01*
X70046174Y-58685351D01*
X70046174Y-58685352D01*
X70046172Y-58685354D01*
X70007717Y-58738282D01*
X69930476Y-58844594D01*
X69841117Y-59019970D01*
X69780290Y-59207173D01*
X69749500Y-59401577D01*
X68506454Y-59401577D01*
X68507201Y-59389224D01*
X68516796Y-59230589D01*
X68518271Y-59206201D01*
X68520076Y-59191340D01*
X68537498Y-59096275D01*
X68571780Y-58909197D01*
X68575364Y-58894663D01*
X68590966Y-58844594D01*
X68660696Y-58620822D01*
X68665998Y-58606841D01*
X68783731Y-58345249D01*
X68790676Y-58332016D01*
X68939080Y-58086526D01*
X68947567Y-58074230D01*
X69124480Y-57848417D01*
X69134395Y-57837226D01*
X69337226Y-57634395D01*
X69348417Y-57624480D01*
X69574230Y-57447567D01*
X69586526Y-57439080D01*
X69832016Y-57290676D01*
X69845249Y-57283731D01*
X70106841Y-57165998D01*
X70120822Y-57160696D01*
X70394668Y-57075362D01*
X70409197Y-57071780D01*
X70691344Y-57020075D01*
X70706201Y-57018271D01*
X70996264Y-57000726D01*
X71003751Y-57000500D01*
X71065892Y-57000500D01*
X115934108Y-57000500D01*
X115996249Y-57000500D01*
X116003736Y-57000726D01*
G37*
%TD.AperFunction*%
%TD*%
M02*
